<svg xmlns="http://www.w3.org/2000/svg" xmlns:xlink="http://www.w3.org/1999/xlink" width="500" zoomAndPan="magnify" viewBox="0 0 375 374.999991" height="500" preserveAspectRatio="xMidYMid meet" version="1.0"><path fill="#ffffff" d="M 215.691406 1.46875 L 215.691406 1.472656 C 215.617188 1.480469 215.5 1.492188 215.347656 1.511719 C 215.425781 1.503906 215.539062 1.488281 215.691406 1.46875 Z M 215.691406 1.46875 " fill-opacity="1" fill-rule="nonzero"/><path fill="#ffffff" d="M 217.082031 1.292969 C 216.890625 1.3125 216.613281 1.347656 216.253906 1.394531 C 216.050781 1.417969 215.867188 1.445312 215.703125 1.46875 C 216.285156 1.390625 216.746094 1.332031 217.082031 1.292969 " fill-opacity="1" fill-rule="nonzero"/><path fill="#ffffff" d="M 215.488281 1.492188 L 215.476562 1.492188 C 215.429688 1.492188 215.304688 1.507812 215.097656 1.535156 L 213.710938 1.785156 C 214.59375 1.644531 215.085938 1.566406 215.183594 1.546875 L 215.433594 1.503906 L 215.484375 1.492188 L 215.488281 1.492188 " fill-opacity="1" fill-rule="nonzero"/><path fill="#ffffff" d="M 236.796875 0 L 236.515625 0.00390625 L 218.664062 1.128906 L 217.167969 1.28125 C 217.640625 1.230469 216.273438 1.4375 213.070312 1.898438 L 213.707031 1.785156 L 211.082031 2.132812 C 210.109375 2.277344 209.085938 2.5 208.015625 2.800781 L 212.75 1.957031 C 212.464844 1.984375 212.570312 1.96875 213.070312 1.898438 L 212.75 1.957031 C 213.371094 1.917969 214 1.917969 214.636719 1.957031 C 225.980469 3.160156 232.242188 3.964844 233.417969 4.375 C 244.488281 6.382812 255.035156 9.519531 265.0625 13.78125 C 269.230469 15.796875 273.171875 17.871094 276.882812 20.003906 C 285.753906 25.441406 290.796875 28.769531 292.019531 30 C 298.058594 34.613281 303.175781 39.460938 307.375 44.542969 C 310.207031 41.683594 313.394531 39.777344 316.9375 38.820312 L 317.097656 36.8125 L 305.664062 26.964844 C 297.023438 20.65625 291.785156 16.976562 289.957031 15.914062 C 286.859375 13.925781 284.636719 12.703125 283.289062 12.25 C 271.597656 8.066406 264.972656 5.796875 263.414062 5.445312 C 251.621094 1.816406 242.75 0 236.796875 0 " fill-opacity="1" fill-rule="nonzero"/><path fill="#ffffff" d="M 208.015625 2.800781 L 197.128906 4.746094 C 179.875 9.625 172.164062 12.855469 163.699219 20.0625 C 152.667969 29.460938 132.875 56.164062 128.007812 69.425781 C 123.136719 82.6875 115.238281 103.570312 109.164062 135.394531 C 103.089844 167.21875 98.066406 232.113281 94.433594 252.667969 C 91.167969 271.164062 88.203125 284.53125 85.425781 292.730469 C 82.523438 301.300781 78.398438 310.976562 70.632812 319.753906 C 59.625 332.199219 41.15625 342.429688 41.15625 342.429688 C 53.484375 340.167969 66.996094 334.398438 80.578125 323.667969 C 89.863281 316.335938 91.828125 313.597656 97.757812 298.328125 C 101.917969 287.625 104.46875 280.335938 108.347656 258.871094 C 112.394531 236.445312 121.714844 150.65625 122.921875 142.425781 C 123.660156 137.402344 124.511719 132.554688 125.34375 127.859375 C 127.871094 113.519531 132.34375 98.664062 137.917969 82.957031 C 144.851562 63.421875 151.226562 46.894531 161.089844 36.3125 C 179.191406 16.894531 195.785156 6.65625 208.015625 2.800781 Z M 208.015625 2.800781 " fill-opacity="1" fill-rule="nonzero"/><path fill="#ffffff" d="M 217.164062 1.285156 L 217.15625 1.285156 C 217.140625 1.285156 217.125 1.289062 217.109375 1.289062 L 217.089844 1.292969 C 217.101562 1.289062 217.113281 1.289062 217.125 1.289062 L 217.164062 1.285156 " fill-opacity="1" fill-rule="nonzero"/><path fill="#ffffff" d="M 318.0625 38.011719 L 318.011719 38.015625 C 317.851562 38.054688 317.527344 38.234375 317.042969 38.5625 L 317.402344 38.5 L 317.917969 38.472656 L 317.984375 38.375 C 318.027344 38.316406 318.058594 38.261719 318.082031 38.214844 C 318.105469 38.171875 318.121094 38.132812 318.125 38.101562 L 318.128906 38.0625 L 318.121094 38.03125 L 318.097656 38.015625 L 318.0625 38.011719 " fill-opacity="1" fill-rule="nonzero"/><path fill="#ffffff" d="M 317.042969 38.5625 L 308.707031 40.003906 C 267.816406 73.824219 246.691406 92.949219 245.335938 97.382812 C 232.015625 116.105469 224.367188 128.691406 222.382812 135.140625 C 218.496094 143.460938 216.230469 152.707031 215.585938 162.871094 C 215.359375 169.597656 217.003906 177.109375 220.523438 185.398438 C 222.136719 189.160156 224.511719 193.589844 227.640625 198.679688 C 236.828125 211.4375 244.148438 222.496094 249.609375 231.859375 C 256.945312 244.40625 262.292969 254.242188 265.652344 261.375 C 274.570312 279.839844 285.539062 307.601562 298.558594 344.660156 L 298.195312 322.492188 L 283.796875 285.417969 C 277.367188 269.566406 270.59375 255.378906 263.480469 242.859375 C 259.746094 236.207031 255.085938 228.40625 249.496094 219.457031 C 239.863281 206.15625 233.40625 196.355469 230.128906 190.058594 C 224.390625 178.058594 221.851562 168.578125 222.519531 161.625 C 223.3125 151.414062 225.507812 142.445312 229.097656 134.714844 C 230.976562 128.574219 237.984375 116.722656 250.128906 99.15625 C 260.761719 85.355469 283.066406 65.15625 317.042969 38.5625 Z M 317.042969 38.5625 " fill-opacity="1" fill-rule="nonzero"/><path fill="#ffffff" d="M 275.105469 365.75 L 272.230469 366.046875 C 272.914062 365.984375 273.875 365.882812 275.105469 365.75 " fill-opacity="1" fill-rule="nonzero"/><path fill="#ffffff" d="M 158.78125 322.6875 L 156.164062 322.71875 L 120.722656 325.226562 C 119.425781 325.3125 117.753906 325.476562 115.71875 325.710938 C 107.53125 326.628906 98.59375 328.789062 88.902344 332.199219 C 74.277344 337.496094 53.667969 349.011719 27.070312 366.75 L 79.582031 350.730469 C 101.363281 337.359375 119.328125 329.050781 133.472656 325.804688 C 138.234375 326.054688 146.917969 328.242188 159.523438 332.371094 L 170.886719 336.863281 C 190.949219 346.195312 208.191406 353.945312 222.609375 360.121094 C 228.433594 362.605469 236.96875 365.527344 248.207031 368.882812 C 254.113281 370.5625 260.949219 371.882812 268.71875 372.835938 C 283.164062 374.285156 294.117188 374.894531 301.578125 374.671875 C 306.351562 374.636719 311.414062 374.464844 316.769531 374.152344 L 333.8125 372.851562 L 332.257812 372.996094 L 339.25 372.425781 L 340.964844 371.929688 C 329.492188 372.507812 317.957031 372.191406 306.359375 370.988281 C 293.1875 369.292969 283.957031 367.648438 278.660156 366.050781 C 269.027344 363.332031 260.398438 360.363281 252.777344 357.152344 L 203.570312 334.804688 L 191.238281 329.988281 C 177.621094 325.328125 166.804688 322.894531 158.78125 322.6875 Z M 158.78125 322.6875 " fill-opacity="1" fill-rule="nonzero"/><path fill="#ffffff" d="M 190.046875 35.105469 L 189.933594 40.289062 C 189.605469 54.214844 189.746094 65.230469 190.355469 73.332031 C 190.6875 77.570312 191.050781 80.863281 191.449219 83.214844 C 192.15625 87.625 192.878906 91.011719 193.613281 93.378906 C 195.292969 98.910156 197.480469 103.878906 200.175781 108.277344 L 213.535156 118.890625 C 209.332031 113.929688 206.304688 109.847656 204.457031 106.644531 C 201.835938 102.203125 199.792969 97.402344 198.328125 92.246094 C 197.203125 87.882812 196.523438 84.71875 196.296875 82.742188 C 195.933594 80.382812 195.625 77.503906 195.375 74.105469 C 194.796875 66.78125 194.597656 58.792969 194.773438 50.140625 Z M 190.046875 35.105469 " fill-opacity="1" fill-rule="nonzero"/><path fill="#ffffff" d="M 174.59375 46.03125 L 167.546875 64.40625 C 167.476562 79.828125 168.664062 94.347656 171.101562 107.964844 C 175.199219 129.816406 180.402344 149.269531 186.707031 166.328125 C 197.371094 196.078125 218.40625 238.933594 249.820312 294.894531 L 240.933594 267.207031 C 220.324219 228.457031 208.328125 204.808594 204.941406 196.269531 C 198.257812 181.386719 192.144531 165.054688 186.605469 147.269531 C 175.722656 112.6875 171.71875 78.941406 174.59375 46.03125 Z M 174.59375 46.03125 " fill-opacity="1" fill-rule="nonzero"/><path fill="#ffffff" d="M 120.710938 215.84375 L 125.226562 216.53125 C 147.171875 219.9375 161.914062 226.261719 169.449219 235.507812 C 172.15625 238.085938 175.6875 244.011719 180.050781 253.285156 C 190.296875 279.558594 196.402344 293.753906 198.367188 295.871094 C 204.363281 306.039062 211.292969 314.324219 219.15625 320.722656 C 223.351562 325.046875 235.222656 332.78125 254.769531 343.925781 C 260.738281 347.152344 267.195312 350.429688 274.136719 353.761719 L 286.269531 356.171875 C 271.875 350.175781 255.757812 341.648438 237.910156 330.59375 C 229.5625 325.097656 221.695312 318.34375 214.300781 310.320312 C 210.34375 306.273438 205.738281 299.089844 200.488281 288.769531 L 181.738281 244.710938 C 179.371094 240.355469 175.980469 236.148438 171.5625 232.089844 C 161.867188 223.425781 144.914062 218.011719 120.710938 215.84375 Z M 120.710938 215.84375 " fill-opacity="1" fill-rule="nonzero"/><path fill="#ffffff" d="M 298.605469 96.210938 C 298.683594 96.226562 298.757812 96.242188 298.835938 96.261719 L 298.835938 96.253906 Z M 298.605469 96.210938 " fill-opacity="1" fill-rule="nonzero"/><path fill="#ffffff" d="M 311.769531 33.460938 L 311.683594 33.40625 L 318.085938 37.464844 C 318.652344 37.960938 318.953125 38.402344 318.984375 38.785156 C 319.105469 39.242188 319.125 39.890625 319.050781 40.722656 L 317.617188 56.65625 C 317.566406 57.546875 317.027344 59.375 316 62.132812 L 306.191406 86.859375 C 304.992188 90.28125 304.5 92.355469 304.714844 93.082031 C 304.886719 94.558594 305.351562 96.359375 306.109375 98.492188 L 313.742188 118.402344 C 314.539062 120.554688 314.878906 121.660156 314.753906 121.714844 C 310.570312 128.078125 307.851562 132.734375 306.597656 135.679688 C 305.714844 137.101562 303.265625 143.570312 299.242188 155.082031 C 298.347656 157.296875 297.5 159.15625 296.699219 160.660156 C 292.359375 169.355469 285.074219 174.257812 274.84375 175.363281 C 261.277344 177.476562 249.5 175.207031 239.511719 168.554688 C 235.34375 165.960938 228.757812 160.144531 219.761719 151.113281 L 223.921875 150.207031 C 230.226562 157.75 236.578125 163.703125 242.976562 168.070312 C 248.523438 171.84375 254.613281 174.21875 261.242188 175.191406 C 263.160156 175.472656 264.875 175.640625 266.378906 175.695312 L 268.671875 175.753906 L 272.273438 175.621094 C 272.414062 175.609375 272.339844 175.621094 272.058594 175.652344 L 270.085938 175.84375 C 273.703125 175.523438 277.253906 174.632812 280.742188 173.171875 C 285.773438 171.210938 289.898438 167.160156 293.125 161.011719 C 293.90625 159.554688 294.75 157.710938 295.65625 155.476562 C 299.769531 143.777344 302.230469 137.300781 303.039062 136.046875 C 304.375 133.003906 307.074219 128.320312 311.132812 122.003906 C 311.128906 121.433594 310.855469 120.453125 310.304688 119.0625 L 301.578125 96.589844 C 301.121094 95.414062 300.910156 94.273438 300.949219 93.167969 C 300.863281 92.421875 301.238281 90.824219 302.074219 88.367188 L 311.886719 63.621094 C 313 60.8125 313.621094 58.824219 313.753906 57.65625 C 313.964844 57.113281 314.46875 51.898438 315.273438 42.007812 C 315.40625 40.574219 315.386719 39.523438 315.210938 38.859375 C 315.085938 38.40625 314.847656 38.070312 314.492188 37.851562 L 307.914062 33.957031 C 309.492188 33.480469 310.777344 33.316406 311.769531 33.460938 " fill-opacity="1" fill-rule="nonzero"/><path fill="#ffffff" d="M 278.464844 358.367188 L 278.347656 358.363281 L 277.917969 358.351562 C 277.894531 358.351562 277.898438 358.351562 277.933594 358.351562 L 278.183594 358.359375 L 278.15625 358.355469 L 273.753906 358.230469 C 274.402344 358.25 274.492188 358.253906 274.027344 358.238281 L 278.464844 358.367188 " fill-opacity="1" fill-rule="nonzero"/></svg>