<svg xmlns="http://www.w3.org/2000/svg" xmlns:xlink="http://www.w3.org/1999/xlink" width="500" zoomAndPan="magnify" viewBox="0 0 375 374.999991" height="500" preserveAspectRatio="xMidYMid meet" version="1.0"><defs><clipPath id="cfeb1b48cd"><path d="M 27 322 L 341.230469 322 L 341.230469 375 L 27 375 Z M 27 322 " clip-rule="nonzero"/></clipPath></defs><path fill="#000000" d="M 215.804688 1.46875 L 215.804688 1.472656 C 215.726562 1.480469 215.613281 1.492188 215.460938 1.511719 C 215.539062 1.503906 215.652344 1.488281 215.804688 1.46875 Z M 215.804688 1.46875 " fill-opacity="1" fill-rule="nonzero"/><path fill="#000000" d="M 217.195312 1.292969 C 217.003906 1.3125 216.726562 1.347656 216.367188 1.394531 C 216.164062 1.417969 215.980469 1.445312 215.8125 1.46875 C 216.398438 1.390625 216.859375 1.332031 217.195312 1.292969 " fill-opacity="1" fill-rule="nonzero"/><path fill="#000000" d="M 215.601562 1.492188 L 215.585938 1.492188 C 215.542969 1.492188 215.417969 1.507812 215.207031 1.535156 L 213.820312 1.785156 C 214.707031 1.644531 215.199219 1.566406 215.296875 1.546875 L 215.546875 1.503906 L 215.597656 1.492188 L 215.601562 1.492188 " fill-opacity="1" fill-rule="nonzero"/><path fill="#000000" d="M 236.921875 0 L 236.640625 0.00390625 L 218.777344 1.128906 L 217.28125 1.28125 C 217.753906 1.230469 216.386719 1.4375 213.183594 1.898438 L 213.820312 1.785156 L 211.191406 2.132812 C 210.21875 2.277344 209.195312 2.5 208.125 2.800781 L 212.863281 1.957031 C 212.574219 1.984375 212.679688 1.96875 213.179688 1.898438 L 212.863281 1.957031 C 213.484375 1.917969 214.113281 1.917969 214.75 1.957031 C 226.097656 3.160156 232.363281 3.964844 233.542969 4.375 C 244.617188 6.382812 255.171875 9.519531 265.203125 13.78125 C 269.375 15.796875 273.320312 17.871094 277.03125 20.003906 C 285.90625 25.441406 290.957031 28.769531 292.179688 30 C 298.222656 34.613281 303.339844 39.460938 307.542969 44.542969 C 310.375 41.683594 313.566406 39.777344 317.113281 38.820312 L 317.269531 36.8125 L 305.832031 26.964844 C 297.183594 20.65625 291.945312 16.976562 290.113281 15.914062 C 287.015625 13.925781 284.792969 12.703125 283.441406 12.25 C 271.742188 8.066406 265.113281 5.796875 263.554688 5.445312 C 251.753906 1.816406 242.878906 0 236.921875 0 " fill-opacity="1" fill-rule="nonzero"/><path fill="#000000" d="M 208.125 2.800781 L 197.230469 4.746094 C 179.964844 9.625 172.25 12.855469 163.78125 20.0625 C 152.742188 29.460938 132.9375 56.164062 128.066406 69.425781 C 123.195312 82.6875 115.289062 103.570312 109.210938 135.394531 C 103.136719 167.21875 98.109375 232.113281 94.476562 252.667969 C 91.207031 271.164062 88.238281 284.53125 85.460938 292.730469 C 82.554688 301.300781 78.429688 310.976562 70.65625 319.753906 C 59.644531 332.199219 41.164062 342.429688 41.164062 342.429688 C 53.5 340.167969 67.019531 334.398438 80.609375 323.667969 C 89.898438 316.335938 91.863281 313.597656 97.800781 298.328125 C 101.960938 287.625 104.515625 280.335938 108.394531 258.871094 C 112.445312 236.445312 121.769531 150.65625 122.980469 142.425781 C 123.71875 137.402344 124.570312 132.554688 125.402344 127.859375 C 127.929688 113.519531 132.40625 98.664062 137.984375 82.957031 C 144.921875 63.421875 151.300781 46.894531 161.171875 36.3125 C 179.28125 16.894531 195.886719 6.65625 208.125 2.800781 Z M 208.125 2.800781 " fill-opacity="1" fill-rule="nonzero"/><path fill="#000000" d="M 217.277344 1.285156 L 217.269531 1.285156 C 217.253906 1.285156 217.238281 1.289062 217.222656 1.289062 L 217.203125 1.292969 C 217.214844 1.289062 217.226562 1.289062 217.238281 1.289062 L 217.277344 1.285156 " fill-opacity="1" fill-rule="nonzero"/><path fill="#000000" d="M 318.238281 38.011719 L 318.183594 38.015625 C 318.023438 38.054688 317.699219 38.234375 317.214844 38.5625 L 317.578125 38.5 L 318.09375 38.472656 L 318.160156 38.375 C 318.199219 38.316406 318.230469 38.261719 318.253906 38.214844 C 318.277344 38.171875 318.292969 38.132812 318.300781 38.101562 L 318.304688 38.0625 L 318.292969 38.03125 L 318.273438 38.015625 L 318.238281 38.011719 " fill-opacity="1" fill-rule="nonzero"/><path fill="#000000" d="M 317.214844 38.5625 L 308.875 40.003906 C 267.960938 73.824219 246.824219 92.949219 245.464844 97.382812 C 232.140625 116.105469 224.484375 128.691406 222.5 135.140625 C 218.609375 143.460938 216.34375 152.707031 215.699219 162.871094 C 215.472656 169.597656 217.117188 177.109375 220.636719 185.398438 C 222.253906 189.160156 224.628906 193.589844 227.761719 198.679688 C 236.953125 211.4375 244.28125 222.496094 249.742188 231.859375 C 257.082031 244.40625 262.433594 254.242188 265.792969 261.375 C 274.71875 279.839844 285.695312 307.601562 298.71875 344.660156 L 298.355469 322.492188 L 283.949219 285.417969 C 277.515625 269.566406 270.742188 255.378906 263.621094 242.859375 C 259.886719 236.207031 255.222656 228.40625 249.628906 219.457031 C 239.988281 206.15625 233.53125 196.355469 230.25 190.058594 C 224.507812 178.058594 221.96875 168.578125 222.636719 161.625 C 223.429688 151.414062 225.625 142.445312 229.21875 134.714844 C 231.097656 128.574219 238.113281 116.722656 250.261719 99.15625 C 260.902344 85.355469 283.21875 65.15625 317.214844 38.5625 Z M 317.214844 38.5625 " fill-opacity="1" fill-rule="nonzero"/><path fill="#000000" d="M 275.253906 365.75 L 272.375 366.046875 C 273.0625 365.984375 274.019531 365.882812 275.253906 365.75 " fill-opacity="1" fill-rule="nonzero"/><g clip-path="url(#cfeb1b48cd)"><path fill="#000000" d="M 158.859375 322.6875 L 156.242188 322.71875 L 120.777344 325.226562 C 119.480469 325.3125 117.808594 325.476562 115.769531 325.710938 C 107.578125 326.628906 98.632812 328.789062 88.9375 332.199219 C 74.304688 337.496094 53.683594 349.011719 27.070312 366.75 L 79.613281 350.730469 C 101.410156 337.359375 119.382812 329.050781 133.535156 325.804688 C 138.300781 326.054688 146.988281 328.242188 159.605469 332.371094 L 170.972656 336.863281 C 191.046875 346.195312 208.296875 353.945312 222.726562 360.121094 C 228.554688 362.605469 237.09375 365.527344 248.339844 368.882812 C 254.25 370.5625 261.089844 371.882812 268.863281 372.835938 C 283.316406 374.285156 294.273438 374.894531 301.742188 374.671875 C 306.519531 374.636719 311.585938 374.464844 316.941406 374.152344 L 333.996094 372.851562 L 332.4375 372.996094 L 339.4375 372.425781 L 341.152344 371.929688 C 329.675781 372.507812 318.132812 372.191406 306.527344 370.988281 C 293.347656 369.292969 284.109375 367.648438 278.808594 366.050781 C 269.171875 363.332031 260.539062 360.363281 252.914062 357.152344 L 203.675781 334.804688 L 191.335938 329.988281 C 177.710938 325.328125 166.886719 322.894531 158.859375 322.6875 Z M 158.859375 322.6875 " fill-opacity="1" fill-rule="nonzero"/></g><path fill="#000000" d="M 190.144531 35.105469 L 190.03125 40.289062 C 189.699219 54.214844 189.839844 65.230469 190.453125 73.332031 C 190.785156 77.570312 191.148438 80.863281 191.546875 83.214844 C 192.253906 87.625 192.976562 91.011719 193.714844 93.378906 C 195.394531 98.910156 197.582031 103.878906 200.28125 108.277344 L 213.644531 118.890625 C 209.441406 113.929688 206.414062 109.847656 204.5625 106.644531 C 201.941406 102.203125 199.898438 97.402344 198.429688 92.246094 C 197.304688 87.882812 196.625 84.71875 196.398438 82.742188 C 196.035156 80.382812 195.726562 77.503906 195.476562 74.105469 C 194.898438 66.78125 194.695312 58.792969 194.871094 50.140625 Z M 190.144531 35.105469 " fill-opacity="1" fill-rule="nonzero"/><path fill="#000000" d="M 174.683594 46.03125 L 167.628906 64.40625 C 167.5625 79.828125 168.75 94.347656 171.1875 107.964844 C 175.285156 129.816406 180.492188 149.269531 186.804688 166.328125 C 197.472656 196.078125 218.523438 238.933594 249.953125 294.894531 L 241.0625 267.207031 C 220.441406 228.457031 208.4375 204.808594 205.050781 196.269531 C 198.359375 181.386719 192.242188 165.054688 186.703125 147.269531 C 175.8125 112.6875 171.804688 78.941406 174.683594 46.03125 Z M 174.683594 46.03125 " fill-opacity="1" fill-rule="nonzero"/><path fill="#000000" d="M 120.769531 215.84375 L 125.285156 216.53125 C 147.246094 219.9375 161.996094 226.261719 169.535156 235.507812 C 172.242188 238.085938 175.777344 244.011719 180.140625 253.285156 C 190.394531 279.558594 196.503906 293.753906 198.46875 295.871094 C 204.46875 306.039062 211.402344 314.324219 219.269531 320.722656 C 223.46875 325.046875 235.347656 332.78125 254.90625 343.925781 C 260.878906 347.152344 267.335938 350.429688 274.285156 353.761719 L 286.425781 356.171875 C 272.023438 350.175781 255.894531 341.648438 238.035156 330.59375 C 229.683594 325.097656 221.8125 318.34375 214.414062 310.320312 C 210.453125 306.273438 205.84375 299.089844 200.589844 288.769531 L 181.832031 244.710938 C 179.460938 240.355469 176.070312 236.148438 171.648438 232.089844 C 161.945312 223.425781 144.984375 218.011719 120.769531 215.84375 Z M 120.769531 215.84375 " fill-opacity="1" fill-rule="nonzero"/><path fill="#000000" d="M 298.765625 96.210938 C 298.84375 96.226562 298.921875 96.242188 299 96.261719 L 298.996094 96.253906 L 298.769531 96.210938 Z M 298.765625 96.210938 " fill-opacity="1" fill-rule="nonzero"/><path fill="#000000" d="M 311.941406 33.460938 L 311.851562 33.40625 L 318.261719 37.464844 C 318.824219 37.960938 319.125 38.402344 319.160156 38.785156 C 319.277344 39.242188 319.300781 39.890625 319.222656 40.722656 L 317.789062 56.65625 C 317.738281 57.546875 317.199219 59.375 316.171875 62.132812 L 306.359375 86.859375 C 305.15625 90.28125 304.664062 92.355469 304.882812 93.082031 C 305.050781 94.558594 305.515625 96.359375 306.277344 98.492188 L 313.914062 118.402344 C 314.710938 120.554688 315.050781 121.660156 314.925781 121.714844 C 310.738281 128.078125 308.019531 132.734375 306.765625 135.679688 C 305.882812 137.101562 303.429688 143.570312 299.402344 155.082031 C 298.507812 157.296875 297.660156 159.15625 296.859375 160.660156 C 292.515625 169.355469 285.226562 174.257812 274.992188 175.363281 C 261.417969 177.476562 249.632812 175.207031 239.640625 168.554688 C 235.46875 165.960938 228.878906 160.144531 219.875 151.113281 L 224.039062 150.207031 C 230.347656 157.75 236.703125 163.703125 243.105469 168.070312 C 248.65625 171.84375 254.75 174.21875 261.382812 175.191406 C 263.300781 175.472656 265.015625 175.640625 266.523438 175.695312 L 268.816406 175.753906 L 272.417969 175.621094 C 272.558594 175.609375 272.488281 175.621094 272.207031 175.652344 L 270.230469 175.84375 C 273.851562 175.523438 277.40625 174.632812 280.894531 173.171875 C 285.925781 171.210938 290.054688 167.160156 293.285156 161.011719 C 294.066406 159.554688 294.910156 157.710938 295.816406 155.476562 C 299.933594 143.777344 302.394531 137.300781 303.203125 136.046875 C 304.539062 133.003906 307.238281 128.320312 311.304688 122.003906 C 311.300781 121.433594 311.023438 120.453125 310.476562 119.0625 L 301.742188 96.589844 C 301.285156 95.414062 301.074219 94.273438 301.113281 93.167969 C 301.027344 92.421875 301.402344 90.824219 302.238281 88.367188 L 312.054688 63.621094 C 313.171875 60.8125 313.792969 58.824219 313.921875 57.65625 C 314.132812 57.113281 314.640625 51.898438 315.445312 42.007812 C 315.578125 40.574219 315.558594 39.523438 315.382812 38.859375 C 315.261719 38.40625 315.019531 38.070312 314.660156 37.851562 L 308.082031 33.957031 C 309.660156 33.480469 310.945312 33.316406 311.941406 33.460938 " fill-opacity="1" fill-rule="nonzero"/><path fill="#000000" d="M 278.613281 358.367188 L 278.496094 358.363281 L 278.066406 358.351562 C 278.042969 358.351562 278.046875 358.351562 278.082031 358.351562 L 278.332031 358.359375 L 278.304688 358.355469 L 273.902344 358.230469 C 274.546875 358.25 274.640625 358.253906 274.175781 358.238281 L 278.613281 358.367188 " fill-opacity="1" fill-rule="nonzero"/></svg>