<svg xmlns="http://www.w3.org/2000/svg" xmlns:xlink="http://www.w3.org/1999/xlink" width="500" zoomAndPan="magnify" viewBox="0 0 375 374.999991" height="500" preserveAspectRatio="xMidYMid meet" version="1.0"><defs><clipPath id="ffdadb24c0"><path d="M 58.359375 42 L 301 42 L 301 375 L 58.359375 375 Z M 58.359375 42 " clip-rule="nonzero"/></clipPath><clipPath id="b1133f1c72"><path d="M 268.015625 22 L 316.359375 22 L 316.359375 71.710938 L 268.015625 71.710938 Z M 268.015625 22 " clip-rule="nonzero"/></clipPath></defs><g clip-path="url(#ffdadb24c0)"><path fill="#000000" d="M 221.664062 374.273438 C 219.851562 374.683594 217.953125 374.777344 215.949219 374.457031 C 210.417969 373.585938 206.433594 370.625 202.578125 367.761719 C 197.617188 364.074219 192.933594 360.597656 185.289062 361.910156 C 183.121094 362.277344 180.808594 362.980469 178.363281 363.71875 C 171.898438 365.675781 164.578125 367.890625 158.429688 364.003906 C 154.628906 361.597656 152.609375 357.558594 150.65625 353.652344 C 149.90625 352.144531 149.128906 350.589844 148.265625 349.183594 C 143.140625 340.769531 133.382812 335.605469 123.402344 336.023438 C 120.925781 336.128906 118.335938 336.582031 115.597656 337.0625 C 107.238281 338.535156 97.765625 340.195312 91.078125 330.601562 C 89.132812 327.816406 87.855469 324.296875 87.386719 320.421875 C 86.09375 309.78125 79.054688 302.800781 71.601562 295.414062 C 67.214844 291.066406 62.675781 286.5625 59.433594 281.253906 C 58.382812 279.53125 58.683594 277.277344 60.148438 275.902344 C 66.1875 270.226562 74.121094 267.019531 81.792969 263.921875 C 84.425781 262.859375 87.144531 261.757812 89.726562 260.582031 C 108.625 251.964844 124.511719 237.289062 136.941406 216.964844 C 147.070312 200.390625 154.90625 180.421875 160.898438 155.902344 C 162.847656 147.910156 164.210938 139.519531 165.527344 131.402344 C 167.335938 120.25 169.203125 108.71875 172.644531 97.941406 C 177.449219 82.890625 189.554688 59.425781 207.847656 42.832031 C 208.265625 42.449219 208.921875 42.480469 209.300781 42.90625 C 209.6875 43.328125 209.65625 43.980469 209.230469 44.367188 C 191.246094 60.683594 179.34375 83.761719 174.609375 98.570312 C 171.21875 109.199219 169.359375 120.65625 167.566406 131.734375 C 166.242188 139.890625 164.878906 148.320312 162.90625 156.390625 C 156.863281 181.121094 148.949219 201.289062 138.703125 218.042969 C 126.054688 238.730469 109.863281 253.675781 90.582031 262.464844 C 87.960938 263.660156 85.21875 264.765625 82.566406 265.839844 C 75.070312 268.867188 67.320312 272 61.558594 277.410156 C 60.816406 278.105469 60.660156 279.300781 61.195312 280.175781 C 64.304688 285.269531 68.753906 289.679688 73.054688 293.945312 C 80.433594 301.257812 88.058594 308.816406 89.4375 320.171875 C 89.863281 323.710938 91.019531 326.90625 92.769531 329.417969 C 98.707031 337.929688 106.738281 336.519531 115.242188 335.027344 C 117.925781 334.554688 120.699219 334.066406 123.320312 333.957031 C 134.03125 333.507812 144.519531 339.058594 150.03125 348.105469 C 150.933594 349.589844 151.730469 351.183594 152.503906 352.726562 C 154.414062 356.550781 156.21875 360.15625 159.535156 362.253906 C 164.882812 365.632812 171.433594 363.65625 177.765625 361.742188 C 180.277344 360.980469 182.644531 360.265625 184.941406 359.871094 C 193.453125 358.40625 198.71875 362.320312 203.808594 366.101562 C 207.464844 368.816406 211.242188 371.625 216.269531 372.414062 C 224.554688 373.722656 231.199219 366.683594 237.058594 360.480469 C 238.460938 358.992188 239.789062 357.585938 241.101562 356.328125 C 261.769531 336.542969 278.503906 309.976562 288.226562 281.515625 C 298.476562 251.507812 300.675781 221.039062 294.578125 193.402344 C 292.207031 182.636719 288.113281 171.953125 284.15625 161.617188 C 278.429688 146.675781 272.511719 131.21875 271.558594 115.046875 C 270.6875 100.253906 275.226562 81.851562 283.117188 68.15625 C 283.402344 67.664062 284.035156 67.496094 284.527344 67.777344 C 285.023438 68.066406 285.191406 68.695312 284.90625 69.191406 C 277.203125 82.558594 272.773438 100.507812 273.621094 114.925781 C 274.554688 130.777344 280.414062 146.082031 286.085938 160.878906 C 290.070312 171.285156 294.191406 182.042969 296.597656 192.957031 C 302.773438 220.964844 300.550781 251.820312 290.179688 282.1875 C 280.355469 310.953125 263.433594 337.816406 242.53125 357.824219 C 241.253906 359.042969 239.945312 360.429688 238.558594 361.898438 C 233.683594 367.066406 228.289062 372.777344 221.664062 374.273438 " fill-opacity="1" fill-rule="nonzero"/></g><path fill="#000000" d="M 260.371094 55.136719 C 259.171875 55.402344 257.816406 55.421875 256.285156 55.101562 C 252.480469 54.316406 249.558594 51.933594 248.054688 48.394531 C 246.828125 45.496094 246.714844 42.167969 247.667969 39.367188 C 246.476562 39.59375 245.078125 39.730469 243.710938 39.730469 C 243.140625 39.730469 242.675781 39.269531 242.675781 38.695312 C 242.675781 38.128906 243.140625 37.664062 243.710938 37.664062 C 246.28125 37.664062 248.414062 37.15625 249.109375 36.796875 C 249.523438 36.585938 250.03125 36.675781 250.34375 37.019531 C 250.660156 37.363281 250.707031 37.875 250.457031 38.269531 C 248.863281 40.789062 248.664062 44.535156 249.960938 47.585938 C 251.1875 50.484375 253.582031 52.433594 256.703125 53.078125 C 263.316406 54.453125 265.894531 47.804688 267.410156 41.859375 C 267.496094 41.515625 267.574219 41.210938 267.644531 40.960938 C 267.75 40.582031 268.039062 40.289062 268.445312 40.21875 C 268.835938 40.144531 269.226562 40.300781 269.464844 40.621094 C 270.808594 42.421875 273.039062 43.53125 275.578125 43.65625 C 278.117188 43.785156 280.441406 42.90625 281.957031 41.242188 C 283.472656 39.578125 284.136719 37.179688 283.78125 34.660156 C 283.425781 32.144531 282.121094 30.023438 280.203125 28.847656 C 279.867188 28.640625 279.675781 28.261719 279.714844 27.867188 C 279.753906 27.472656 280.011719 27.136719 280.382812 27 C 281.195312 26.695312 283.589844 24.101562 284.546875 20.4375 C 285.171875 18.050781 285.34375 14.527344 282.605469 11.289062 C 280.765625 9.113281 277.109375 7.898438 273.710938 8.335938 C 270.617188 8.734375 268.207031 10.433594 266.917969 13.125 C 266.746094 13.484375 266.382812 13.710938 265.984375 13.710938 C 265.589844 13.710938 265.226562 13.484375 265.054688 13.125 C 265.007812 13.027344 260.246094 3.355469 253.351562 5.886719 C 248.105469 7.808594 246.253906 12.527344 246.265625 15.976562 C 246.265625 16.550781 245.804688 17.015625 245.234375 17.015625 C 244.664062 17.015625 244.199219 16.554688 244.199219 15.984375 C 244.1875 11.863281 246.394531 6.234375 252.636719 3.941406 C 258.699219 1.71875 263.605469 6.652344 266.019531 10.589844 C 267.726562 8.199219 270.304688 6.691406 273.449219 6.285156 C 277.5625 5.757812 281.878906 7.230469 284.183594 9.953125 C 287.492188 13.871094 287.292969 18.101562 286.546875 20.957031 C 285.765625 23.945312 284.074219 26.597656 282.523438 28.003906 C 284.28125 29.554688 285.460938 31.804688 285.828125 34.371094 C 286.265625 37.503906 285.414062 40.515625 283.480469 42.640625 C 281.546875 44.757812 278.628906 45.878906 275.472656 45.722656 C 273.050781 45.601562 270.839844 44.742188 269.167969 43.308594 C 268.183594 47.03125 266 53.863281 260.371094 55.136719 " fill-opacity="1" fill-rule="nonzero"/><path fill="#000000" d="M 260.140625 23.5625 C 259.855469 23.625 259.570312 23.71875 259.292969 23.832031 C 258.074219 24.347656 257.132812 25.304688 256.632812 26.53125 C 255.609375 29.0625 256.828125 31.953125 259.355469 32.980469 C 261.878906 34.007812 264.773438 32.785156 265.800781 30.257812 C 266.296875 29.03125 266.285156 27.6875 265.773438 26.46875 C 265.257812 25.25 264.300781 24.304688 263.078125 23.808594 C 262.132812 23.421875 261.113281 23.339844 260.140625 23.5625 Z M 262.746094 35.242188 C 261.402344 35.542969 259.949219 35.453125 258.578125 34.894531 C 254.996094 33.441406 253.265625 29.339844 254.71875 25.753906 C 255.425781 24.015625 256.765625 22.65625 258.492188 21.929688 C 260.214844 21.199219 262.121094 21.1875 263.855469 21.890625 C 265.589844 22.597656 266.945312 23.9375 267.675781 25.664062 C 268.40625 27.390625 268.417969 29.300781 267.714844 31.035156 C 266.816406 33.246094 264.910156 34.753906 262.746094 35.242188 " fill-opacity="1" fill-rule="nonzero"/><path fill="#000000" d="M 220.90625 39.773438 C 221.089844 39.730469 221.285156 39.742188 221.46875 39.804688 C 221.851562 39.9375 222.125 40.277344 222.160156 40.679688 C 222.445312 43.5625 224.667969 46.230469 227.820312 47.476562 C 231.878906 49.082031 236.359375 48.101562 240.125 44.796875 C 243.289062 42.011719 243.3125 36.3125 241.34375 32.738281 C 241.167969 32.421875 241.171875 32.035156 241.351562 31.71875 C 241.53125 31.40625 241.859375 31.210938 242.226562 31.207031 C 246.171875 31.125 249.765625 27.765625 249.917969 24.019531 C 250.035156 21.191406 248.988281 19.035156 246.878906 17.785156 C 244.109375 16.140625 240.234375 16.417969 238.230469 17.621094 C 237.792969 17.886719 237.21875 17.789062 236.898438 17.386719 C 236.570312 16.984375 236.59375 16.402344 236.949219 16.027344 C 238.300781 14.59375 239.855469 11.011719 238.902344 7.878906 C 238.152344 5.398438 236.015625 3.734375 232.550781 2.9375 C 230.09375 2.371094 227.96875 2.914062 226.226562 4.550781 C 223.664062 6.972656 222.59375 11.191406 223.042969 13.871094 C 223.128906 14.359375 222.851562 14.839844 222.382812 15.011719 C 221.914062 15.183594 221.398438 15 221.140625 14.574219 C 219.039062 11.070312 214.582031 9.21875 210.808594 10.246094 C 207.0625 11.269531 204.398438 15.253906 204.75 19.3125 C 205.128906 23.71875 207.074219 24.714844 209.324219 25.875 C 209.660156 26.046875 209.875 26.390625 209.886719 26.769531 C 209.894531 27.148438 209.695312 27.5 209.371094 27.691406 C 209.09375 27.855469 202.542969 31.796875 205.375 38.898438 C 206.3125 41.242188 208.730469 43.046875 211.535156 43.5 C 216.03125 44.226562 218.289062 42.292969 220.382812 40.070312 C 220.527344 39.917969 220.710938 39.816406 220.90625 39.773438 Z M 234.617188 49.953125 C 232.078125 50.527344 229.484375 50.359375 227.0625 49.398438 C 223.898438 48.148438 221.492188 45.683594 220.53125 42.835938 C 218.425781 44.738281 215.675781 46.265625 211.207031 45.542969 C 207.699219 44.976562 204.660156 42.667969 203.460938 39.664062 C 200.875 33.191406 204.710938 28.804688 206.933594 26.929688 C 204.996094 25.757812 203.070312 23.917969 202.691406 19.488281 C 202.257812 14.464844 205.585938 9.527344 210.265625 8.25 C 213.953125 7.242188 218.121094 8.453125 220.972656 11.121094 C 221.304688 8.339844 222.542969 5.1875 224.8125 3.046875 C 227.054688 0.933594 229.890625 0.199219 233.015625 0.921875 C 238.292969 2.140625 240.207031 5.050781 240.882812 7.277344 C 241.644531 9.796875 241.191406 12.574219 240.195312 14.773438 C 242.640625 14.324219 245.578125 14.605469 247.933594 16.007812 C 250.695312 17.648438 252.128906 20.523438 251.980469 24.101562 C 251.804688 28.390625 248.144531 32.289062 243.792969 33.109375 C 245.460938 37.347656 245.117188 43.160156 241.488281 46.347656 C 239.386719 48.195312 237.03125 49.410156 234.617188 49.953125 " fill-opacity="1" fill-rule="nonzero"/><path fill="#000000" d="M 232.722656 27.839844 L 232.726562 27.835938 Z M 226.003906 21.027344 C 224.390625 21.390625 222.996094 22.550781 222.414062 24.222656 C 221.976562 25.46875 222.050781 26.8125 222.625 28.007812 C 223.195312 29.195312 224.199219 30.09375 225.445312 30.53125 C 228.015625 31.433594 230.84375 30.074219 231.746094 27.496094 C 232.648438 24.921875 231.289062 22.089844 228.71875 21.1875 C 227.8125 20.871094 226.875 20.832031 226.003906 21.027344 Z M 228.609375 32.707031 C 227.371094 32.984375 226.042969 32.933594 224.757812 32.480469 C 222.992188 31.863281 221.574219 30.59375 220.765625 28.898438 C 219.949219 27.210938 219.84375 25.304688 220.464844 23.539062 C 221.742188 19.886719 225.753906 17.953125 229.398438 19.238281 C 233.046875 20.515625 234.976562 24.527344 233.695312 28.179688 C 232.867188 30.546875 230.890625 32.191406 228.609375 32.707031 " fill-opacity="1" fill-rule="nonzero"/><g clip-path="url(#b1133f1c72)"><path fill="#000000" d="M 307.648438 68.375 C 306.84375 68.554688 306.011719 68.632812 305.175781 68.589844 C 302.445312 68.449219 299.785156 67.0625 297.929688 64.917969 C 297.003906 67.125 295.121094 69.445312 292.648438 70.621094 C 290.621094 71.585938 287.375 72.179688 283.4375 69.535156 C 278.835938 66.441406 280.109375 60.746094 281.25 57.675781 C 277.332031 58.488281 271.738281 58.144531 269.417969 52.785156 C 267.285156 47.859375 269.042969 44.710938 270.890625 42.9375 C 271.304688 42.542969 271.957031 42.554688 272.355469 42.964844 C 272.75 43.378906 272.734375 44.03125 272.320312 44.429688 C 270.320312 46.347656 269.980469 48.886719 271.3125 51.960938 C 272.445312 54.574219 274.664062 55.910156 277.910156 55.925781 C 280.472656 55.945312 282.6875 55.125 282.710938 55.113281 C 283.113281 54.964844 283.570312 55.078125 283.851562 55.402344 C 284.132812 55.730469 284.1875 56.191406 283.980469 56.574219 C 283.941406 56.652344 279.773438 64.582031 284.589844 67.816406 C 287.105469 69.503906 289.519531 69.820312 291.761719 68.753906 C 294.582031 67.414062 296.320312 64.210938 296.488281 62.417969 C 296.53125 61.964844 296.851562 61.578125 297.308594 61.5 C 297.753906 61.410156 298.207031 61.621094 298.421875 62.023438 C 299.824219 64.613281 302.515625 66.382812 305.28125 66.523438 C 308.121094 66.671875 310.972656 64.980469 312.066406 62.511719 C 312.867188 60.695312 312.800781 58.40625 311.890625 56.378906 C 311.050781 54.515625 309.539062 52.863281 307.515625 51.59375 C 307.191406 51.390625 307.007812 51.023438 307.035156 50.644531 C 307.0625 50.261719 307.296875 49.925781 307.648438 49.769531 C 311.359375 48.136719 314.917969 43.996094 314.195312 40.144531 C 313.800781 38.011719 312.332031 35.945312 310.167969 34.464844 C 305.722656 31.425781 301.148438 34.515625 298.816406 36.632812 C 298.457031 36.953125 297.929688 36.988281 297.535156 36.714844 C 297.140625 36.449219 296.984375 35.9375 297.15625 35.492188 C 297.824219 33.769531 297.039062 30.960938 295.210938 28.503906 C 293.554688 26.28125 290.683594 23.988281 287.59375 24.234375 C 286.632812 24.308594 285.609375 24.539062 284.632812 24.890625 C 284.105469 25.085938 283.503906 24.808594 283.308594 24.273438 C 283.117188 23.738281 283.390625 23.144531 283.925781 22.949219 C 285.078125 22.53125 286.289062 22.261719 287.429688 22.171875 C 290.769531 21.910156 294.296875 23.8125 296.863281 27.265625 C 298.394531 29.320312 299.285156 31.523438 299.4375 33.488281 C 303.589844 30.582031 307.75 30.304688 311.332031 32.757812 C 313.949219 34.546875 315.730469 37.097656 316.226562 39.761719 C 317.039062 44.101562 313.902344 48.507812 310.039062 50.847656 C 311.703125 52.171875 312.980469 53.769531 313.773438 55.53125 C 314.921875 58.082031 314.988281 61.003906 313.953125 63.347656 C 312.832031 65.886719 310.414062 67.75 307.648438 68.375 " fill-opacity="1" fill-rule="nonzero"/></g><path fill="#000000" d="M 292.792969 41.671875 C 291.789062 41.898438 290.882812 42.429688 290.1875 43.21875 C 288.378906 45.261719 288.570312 48.398438 290.613281 50.207031 C 292.65625 52.015625 295.789062 51.820312 297.59375 49.78125 C 298.46875 48.789062 298.90625 47.519531 298.828125 46.199219 C 298.746094 44.875 298.15625 43.667969 297.167969 42.789062 C 296.179688 41.914062 294.90625 41.476562 293.589844 41.558594 C 293.320312 41.574219 293.054688 41.613281 292.792969 41.671875 Z M 295.441406 53.339844 C 293.316406 53.820312 291 53.304688 289.246094 51.753906 C 286.347656 49.191406 286.082031 44.746094 288.640625 41.847656 C 289.878906 40.445312 291.59375 39.609375 293.464844 39.496094 C 295.332031 39.378906 297.132812 40 298.539062 41.242188 C 299.9375 42.488281 300.777344 44.199219 300.890625 46.070312 C 301.003906 47.941406 300.382812 49.746094 299.140625 51.148438 C 298.132812 52.292969 296.828125 53.027344 295.441406 53.339844 " fill-opacity="1" fill-rule="nonzero"/><path fill="#000000" d="M 115.984375 280.289062 C 114.355469 280.65625 112.652344 281.003906 110.847656 281.332031 C 110.285156 281.433594 109.75 281.0625 109.648438 280.503906 C 109.542969 279.941406 109.917969 279.398438 110.476562 279.300781 C 116.492188 278.199219 121.394531 276.917969 125.90625 275.277344 C 145.992188 267.558594 160.421875 252.121094 170.007812 228.09375 C 178.605469 206.546875 182.597656 180.289062 186.453125 154.894531 C 191.726562 120.1875 197.175781 84.296875 214.542969 60.296875 C 214.875 59.832031 215.523438 59.730469 215.984375 60.066406 C 216.445312 60.402344 216.550781 61.046875 216.214844 61.507812 C 199.140625 85.101562 193.726562 120.742188 188.496094 155.207031 C 180.703125 206.496094 172.648438 259.53125 126.632812 277.210938 C 123.355469 278.40625 119.894531 279.40625 115.984375 280.289062 " fill-opacity="1" fill-rule="nonzero"/><path fill="#000000" d="M 139.910156 309.671875 C 139.886719 309.679688 139.863281 309.6875 139.835938 309.699219 C 139.863281 309.691406 139.886719 309.679688 139.910156 309.671875 Z M 140.554688 311.1875 C 140.554688 311.1875 140.554688 311.1875 140.550781 311.1875 C 140.554688 311.1875 140.554688 311.1875 140.554688 311.1875 Z M 140.429688 311.675781 C 139.910156 311.792969 139.332031 311.523438 139.070312 310.984375 C 138.777344 310.371094 139.019531 309.648438 139.621094 309.34375 C 139.953125 309.175781 140.332031 309.203125 140.625 309.386719 C 160.207031 301.460938 174.613281 289.59375 184.699219 273.101562 C 193.835938 258.164062 199.179688 239.773438 201.035156 216.886719 C 202.6875 202.335938 203.644531 187.53125 204.570312 173.210938 C 206.121094 149.085938 207.730469 124.140625 212.730469 99.960938 C 212.84375 99.402344 213.390625 99.042969 213.949219 99.160156 C 214.507812 99.273438 214.867188 99.820312 214.75 100.378906 C 209.785156 124.417969 208.179688 149.292969 206.628906 173.347656 C 205.703125 187.691406 204.746094 202.523438 203.089844 217.085938 C 201.210938 240.273438 195.773438 258.960938 186.460938 274.183594 C 176.144531 291.050781 160.730469 303.640625 140.644531 311.605469 C 140.574219 311.636719 140.503906 311.660156 140.429688 311.675781 " fill-opacity="1" fill-rule="nonzero"/><path fill="#000000" d="M 218.242188 334.984375 C 217.855469 335.074219 217.4375 334.929688 217.1875 334.589844 C 216.847656 334.136719 216.941406 333.488281 217.398438 333.148438 C 254.726562 305.386719 262.140625 254.507812 261.792969 216.710938 C 262.097656 195.867188 258.699219 175.046875 255.414062 154.917969 C 251.878906 133.261719 248.226562 110.871094 249.15625 88.378906 C 249.179688 87.808594 249.660156 87.363281 250.230469 87.390625 C 250.800781 87.410156 251.242188 87.890625 251.21875 88.464844 C 250.296875 110.742188 253.933594 133.03125 257.453125 154.582031 C 260.753906 174.800781 264.164062 195.714844 263.855469 216.714844 C 264.210938 254.96875 256.652344 306.53125 218.628906 334.808594 C 218.511719 334.894531 218.378906 334.953125 218.242188 334.984375 " fill-opacity="1" fill-rule="nonzero"/><path fill="#000000" d="M 206.703125 296.71875 C 206.3125 296.804688 205.894531 296.699219 205.585938 296.402344 C 205.085938 295.933594 205.054688 295.175781 205.507812 294.675781 C 205.738281 294.421875 206.070312 294.3125 206.382812 294.34375 C 221.34375 277.988281 230.152344 257.917969 233.289062 233.027344 C 236.128906 210.453125 234.160156 185.976562 232.257812 162.300781 C 229.464844 127.558594 226.578125 91.636719 238.476562 59.957031 C 238.679688 59.421875 239.273438 59.148438 239.808594 59.351562 C 240.34375 59.554688 240.613281 60.148438 240.414062 60.683594 C 228.671875 91.929688 231.542969 127.621094 234.316406 162.136719 C 236.230469 185.914062 238.207031 210.503906 235.335938 233.289062 C 232.109375 258.917969 222.945312 279.550781 207.335938 296.363281 C 207.152344 296.550781 206.933594 296.667969 206.703125 296.71875 " fill-opacity="1" fill-rule="nonzero"/></svg>