<svg xmlns="http://www.w3.org/2000/svg" xmlns:xlink="http://www.w3.org/1999/xlink" width="500" zoomAndPan="magnify" viewBox="0 0 375 374.999991" height="500" preserveAspectRatio="xMidYMid meet" version="1.0"><defs><clipPath id="9916ea526d"><path d="M 2 8.203125 L 368 8.203125 L 368 366.703125 L 2 366.703125 Z M 2 8.203125 " clip-rule="nonzero"/></clipPath></defs><g clip-path="url(#9916ea526d)"><path fill="#000000" d="M 327.089844 107.898438 C 319.941406 67.316406 307.910156 45.21875 290.304688 40.351562 C 281.53125 37.929688 272.488281 40.039062 263.023438 45.023438 L 242.519531 42.089844 C 236.707031 41.257812 232.324219 36.195312 232.324219 30.3125 L 232.324219 24.019531 C 232.324219 15.296875 225.238281 8.203125 216.527344 8.203125 L 139.265625 8.203125 C 130.558594 8.203125 123.472656 15.296875 123.472656 24.019531 L 123.472656 30.3125 C 123.472656 36.195312 119.085938 41.257812 113.273438 42.089844 L 81.339844 46.660156 C 52.363281 50.804688 28.925781 71.847656 21.628906 100.265625 C 9.429688 147.785156 3.140625 184.253906 2.929688 208.65625 C 2.75 230.050781 7.101562 242.78125 16.238281 247.574219 C 21.726562 250.453125 27.695312 249.722656 34.609375 248.871094 C 43.042969 247.835938 53.539062 246.546875 67.921875 250.980469 C 80.316406 254.804688 86.304688 259.96875 93.242188 265.949219 C 98.160156 270.1875 103.734375 274.996094 112.179688 279.597656 C 131.773438 290.273438 145.21875 288.316406 159.453125 286.25 C 161.957031 285.886719 164.476562 285.519531 167.054688 285.21875 C 153.398438 308.429688 149.9375 322.78125 156.140625 330.183594 C 159.3125 333.96875 163.769531 334.421875 168.488281 334.902344 C 173.484375 335.410156 179.144531 335.984375 185.523438 340.332031 C 191.238281 344.226562 193.265625 348.242188 195.226562 352.125 C 197.257812 356.144531 199.355469 360.296875 205.125 362.992188 C 213.023438 366.679688 219.667969 363.96875 226.707031 361.097656 C 233.21875 358.441406 240.597656 355.433594 250.742188 356.828125 C 258.050781 357.832031 262.476562 360.421875 266.382812 362.707031 C 269.878906 364.753906 273.214844 366.703125 277.542969 366.703125 C 278.472656 366.703125 279.449219 366.613281 280.480469 366.414062 C 289.832031 364.617188 297.296875 355.242188 303.265625 337.796875 C 311.316406 339.371094 319.515625 340.386719 327.769531 340.828125 C 327.824219 340.832031 327.875 340.832031 327.925781 340.832031 C 329.445312 340.832031 330.71875 339.648438 330.8125 338.113281 C 332.210938 314.765625 333.226562 292.75 333.867188 272.078125 C 338.40625 268.273438 344.214844 268.367188 349.839844 268.460938 C 354.171875 268.535156 358.257812 268.601562 361.402344 266.722656 C 370.351562 261.375 374.882812 240.867188 330.136719 128.910156 C 329.25 121.414062 328.238281 114.40625 327.089844 107.898438 Z M 226.539062 24.019531 L 226.539062 30.3125 C 226.539062 39.054688 233.058594 46.578125 241.699219 47.816406 L 255.140625 49.738281 C 244.3125 56.917969 232.910156 67.109375 220.734375 77.992188 C 214.070312 83.945312 207.207031 90.078125 200.171875 95.921875 C 206.113281 78.773438 209.167969 61.070312 209.238281 43.148438 C 209.277344 33.421875 208.414062 23.628906 206.6875 13.984375 L 216.527344 13.984375 C 222.046875 13.984375 226.539062 18.484375 226.539062 24.019531 Z M 170.113281 117.257812 C 164.070312 104.410156 158.886719 91.066406 154.722656 77.535156 C 148.375 56.933594 144.242188 35.570312 142.40625 13.984375 L 200.800781 13.984375 C 202.59375 23.613281 203.496094 33.402344 203.457031 43.125 C 203.375 63.5625 199.273438 83.714844 191.285156 103.046875 C 184.375 108.367188 177.3125 113.242188 170.113281 117.257812 Z M 279.386719 360.738281 C 275.6875 361.445312 273.148438 359.964844 269.304688 357.714844 C 265.152344 355.285156 259.980469 352.261719 251.535156 351.097656 C 239.84375 349.492188 231.351562 352.957031 224.519531 355.746094 C 217.9375 358.429688 213.179688 360.371094 207.570312 357.753906 C 203.617188 355.90625 202.265625 353.226562 200.390625 349.515625 C 198.3125 345.40625 195.726562 340.285156 188.78125 335.550781 C 181.191406 330.378906 174.472656 329.699219 169.074219 329.148438 C 164.578125 328.691406 162.160156 328.367188 160.574219 326.472656 C 157.980469 323.378906 156.378906 313.824219 174.167969 284.609375 C 182.980469 284.175781 192.875 285.027344 205.394531 289.402344 C 208.34375 290.429688 211.058594 291.511719 213.59375 292.632812 C 209.476562 299.984375 198.300781 319.960938 195.664062 324.667969 C 195.417969 325.113281 195.296875 325.597656 195.296875 326.074219 C 195.296875 327.089844 195.828125 328.074219 196.777344 328.601562 C 197.226562 328.851562 197.710938 328.972656 198.1875 328.972656 C 199.199219 328.972656 200.183594 328.4375 200.714844 327.492188 C 200.714844 327.492188 214.414062 303.003906 218.816406 295.136719 C 227.082031 299.398438 233.390625 304.148438 239.941406 309.089844 C 241.644531 310.375 243.359375 311.664062 245.113281 312.953125 C 244.816406 313.609375 244.472656 314.378906 244.058594 315.3125 C 242.867188 317.984375 241.296875 321.542969 239.734375 325.101562 C 236.605469 332.210938 233.503906 339.316406 233.503906 339.316406 C 232.863281 340.777344 233.53125 342.484375 234.996094 343.121094 C 235.371094 343.289062 235.765625 343.363281 236.152344 343.363281 C 237.265625 343.363281 238.328125 342.71875 238.804688 341.628906 C 242.402344 333.390625 247.492188 321.789062 249.914062 316.378906 C 259.335938 322.859375 270.714844 329.15625 288.734375 334.3125 C 291.652344 335.148438 294.601562 335.898438 297.566406 336.582031 C 292.449219 351.277344 286.339844 359.398438 279.386719 360.738281 Z M 325.210938 334.875 C 313.34375 334.042969 301.625 331.988281 290.328125 328.753906 C 266.617188 321.964844 254.828125 313.074219 243.425781 304.472656 C 236.339844 299.128906 229.066406 293.652344 219.089844 288.824219 C 219.082031 288.816406 219.070312 288.808594 219.058594 288.800781 C 219.027344 288.785156 218.996094 288.777344 218.964844 288.757812 C 215.449219 287.0625 211.601562 285.445312 207.300781 283.941406 C 195.929688 279.96875 186.457031 278.738281 178.132812 278.738281 C 176.175781 278.738281 174.289062 278.808594 172.449219 278.925781 C 172.371094 278.925781 172.292969 278.9375 172.214844 278.941406 C 167.375 279.261719 162.898438 279.90625 158.621094 280.527344 C 146.960938 282.222656 136.640625 283.722656 122.960938 278.300781 C 135.609375 275.71875 147.863281 271.894531 159.5 266.894531 C 177.902344 258.988281 194.871094 248.164062 210.316406 234.523438 C 227.039062 224.542969 242.53125 212.597656 256.363281 199.011719 C 272.910156 182.761719 287.070312 164.214844 298.453125 143.886719 C 299.234375 142.492188 298.738281 140.730469 297.34375 139.949219 C 295.949219 139.171875 294.1875 139.667969 293.40625 141.0625 C 282.292969 160.910156 268.464844 179.019531 252.3125 194.886719 C 245.640625 201.4375 238.570312 207.597656 231.160156 213.332031 C 239.945312 203.101562 248.117188 191.78125 255.636719 179.378906 C 269.761719 156.089844 281.335938 129.195312 289.117188 101.601562 C 289.550781 100.0625 288.652344 98.46875 287.117188 98.035156 C 285.578125 97.601562 283.980469 98.496094 283.550781 100.03125 C 273.203125 136.726562 240.1875 225.929688 157.214844 261.585938 C 143.59375 267.4375 129.09375 271.625 114.09375 274.042969 C 106.675781 269.886719 101.765625 265.660156 97.019531 261.570312 C 89.898438 255.429688 83.175781 249.632812 69.625 245.457031 C 54.0625 240.65625 42.410156 242.085938 33.902344 243.132812 C 27.464844 243.921875 22.8125 244.492188 18.925781 242.453125 C 7.738281 236.585938 0.09375 207.402344 27.230469 101.703125 C 33.945312 75.554688 55.503906 56.199219 82.15625 52.382812 L 114.09375 47.816406 C 122.738281 46.578125 129.253906 39.054688 129.253906 30.3125 L 129.253906 24.019531 C 129.253906 19.402344 132.386719 15.515625 136.632812 14.351562 C 138.496094 36.390625 142.714844 58.203125 149.191406 79.238281 C 153.464844 93.113281 158.785156 106.792969 164.992188 119.957031 C 158.519531 123.15625 151.945312 125.59375 145.285156 126.980469 C 140.238281 115.722656 135.839844 104.074219 132.21875 92.316406 C 128.84375 81.363281 126.066406 70.078125 123.960938 58.785156 C 123.667969 57.214844 122.15625 56.179688 120.585938 56.472656 C 119.015625 56.765625 117.980469 58.273438 118.273438 59.84375 C 120.421875 71.355469 123.253906 82.851562 126.691406 94.015625 C 130.230469 105.503906 134.492188 116.890625 139.371094 127.921875 C 133.1875 128.605469 126.9375 128.324219 120.625 126.839844 C 93.664062 120.519531 75.46875 94.546875 64.953125 73.871094 C 64.226562 72.445312 62.484375 71.878906 61.0625 72.605469 C 59.640625 73.328125 59.074219 75.070312 59.796875 76.492188 C 70.867188 98.257812 90.179688 125.640625 119.304688 132.472656 C 123.984375 133.570312 128.609375 134.078125 133.183594 134.078125 C 136.863281 134.078125 140.503906 133.730469 144.109375 133.109375 C 144.152344 133.105469 144.191406 133.097656 144.230469 133.089844 C 173.402344 128.023438 200.265625 104.035156 224.585938 82.300781 C 248.371094 61.046875 270.839844 40.96875 288.761719 45.925781 C 303.789062 50.078125 314.765625 71.269531 321.394531 108.902344 C 329.902344 157.207031 331.183594 233.230469 325.210938 334.875 Z M 358.820312 231.375 C 364.074219 255.453125 360.300781 260.644531 358.433594 261.757812 C 356.703125 262.792969 353.417969 262.738281 349.941406 262.675781 C 345.078125 262.59375 339.328125 262.5 334.070312 265.082031 C 335.296875 219.972656 334.671875 181.503906 332.191406 149.953125 C 345.765625 185.199219 354.710938 212.535156 358.820312 231.375 Z M 269.722656 79.679688 C 251.664062 115.761719 223.898438 144.480469 191.542969 160.542969 C 173.449219 169.527344 154.722656 174.089844 137.097656 174.089844 C 124.980469 174.089844 113.378906 171.933594 102.859375 167.574219 C 65.386719 152.058594 48.953125 111.855469 43.625 95.292969 C 43.136719 93.773438 43.972656 92.144531 45.492188 91.65625 C 47.011719 91.167969 48.640625 92.003906 49.128906 93.523438 C 54.210938 109.320312 69.832031 147.640625 105.074219 162.234375 C 151.628906 181.511719 225.839844 154.441406 264.550781 77.09375 C 265.261719 75.664062 267 75.085938 268.429688 75.800781 C 269.859375 76.515625 270.4375 78.253906 269.722656 79.679688 Z M 269.722656 79.679688 " fill-opacity="1" fill-rule="nonzero"/></g></svg>