<svg xmlns="http://www.w3.org/2000/svg" xmlns:xlink="http://www.w3.org/1999/xlink" width="500" zoomAndPan="magnify" viewBox="0 0 375 374.999991" height="500" preserveAspectRatio="xMidYMid meet" version="1.0"><defs><clipPath id="39d057cbc5"><path d="M 2 5.957031 L 368 5.957031 L 368 364.457031 L 2 364.457031 Z M 2 5.957031 " clip-rule="nonzero"/></clipPath><clipPath id="8f95bd9ab0"><path d="M 2 8.203125 L 368 8.203125 L 368 366.703125 L 2 366.703125 Z M 2 8.203125 " clip-rule="nonzero"/></clipPath></defs><g clip-path="url(#39d057cbc5)"><path fill="#ffffff" d="M 327.089844 105.679688 C 319.941406 65.085938 307.910156 42.984375 290.304688 38.113281 C 281.53125 35.691406 272.488281 37.800781 263.023438 42.789062 L 242.519531 39.851562 C 236.707031 39.023438 232.324219 33.957031 232.324219 28.070312 L 232.324219 21.777344 C 232.324219 13.054688 225.238281 5.957031 216.527344 5.957031 L 139.265625 5.957031 C 130.558594 5.957031 123.472656 13.054688 123.472656 21.777344 L 123.472656 28.070312 C 123.472656 33.957031 119.085938 39.023438 113.273438 39.851562 L 81.339844 44.425781 C 52.363281 48.570312 28.925781 69.617188 21.628906 98.046875 C 9.429688 145.578125 3.140625 182.054688 2.929688 206.464844 C 2.75 227.863281 7.101562 240.597656 16.238281 245.390625 C 21.726562 248.269531 27.695312 247.539062 34.609375 246.6875 C 43.042969 245.652344 53.539062 244.363281 67.921875 248.800781 C 80.316406 252.621094 86.304688 257.789062 93.242188 263.769531 C 98.160156 268.011719 103.734375 272.820312 112.179688 277.421875 C 131.773438 288.101562 145.21875 286.144531 159.453125 284.078125 C 161.957031 283.714844 164.476562 283.347656 167.054688 283.046875 C 153.398438 306.261719 149.9375 320.621094 156.140625 328.023438 C 159.3125 331.808594 163.769531 332.261719 168.488281 332.742188 C 173.484375 333.25 179.144531 333.824219 185.523438 338.171875 C 191.238281 342.070312 193.265625 346.085938 195.226562 349.96875 C 197.257812 353.988281 199.355469 358.144531 205.125 360.839844 C 213.023438 364.527344 219.667969 361.816406 226.707031 358.945312 C 233.21875 356.289062 240.597656 353.277344 250.742188 354.671875 C 258.050781 355.679688 262.476562 358.269531 266.382812 360.554688 C 269.878906 362.601562 273.214844 364.550781 277.542969 364.550781 C 278.472656 364.550781 279.449219 364.460938 280.480469 364.261719 C 289.832031 362.464844 297.296875 353.089844 303.265625 335.640625 C 311.316406 337.210938 319.515625 338.230469 327.769531 338.671875 C 327.824219 338.671875 327.875 338.675781 327.925781 338.675781 C 329.445312 338.675781 330.71875 337.488281 330.8125 335.957031 C 332.210938 312.601562 333.226562 290.578125 333.867188 269.902344 C 338.40625 266.097656 344.214844 266.1875 349.839844 266.28125 C 354.171875 266.359375 358.257812 266.425781 361.402344 264.546875 C 370.351562 259.195312 374.882812 238.683594 330.136719 126.695312 C 329.25 119.199219 328.238281 112.191406 327.089844 105.679688 Z M 226.539062 21.777344 L 226.539062 28.070312 C 226.539062 36.816406 233.058594 44.339844 241.699219 45.578125 L 255.140625 47.503906 C 244.3125 54.6875 232.910156 64.878906 220.734375 75.761719 C 214.070312 81.71875 207.207031 87.855469 200.171875 93.699219 C 206.113281 76.546875 209.167969 58.835938 209.238281 40.914062 C 209.277344 31.183594 208.414062 21.386719 206.6875 11.742188 L 216.527344 11.742188 C 222.046875 11.742188 226.539062 16.242188 226.539062 21.777344 Z M 170.113281 115.039062 C 164.070312 102.191406 158.886719 88.84375 154.722656 75.308594 C 148.375 54.703125 144.242188 33.332031 142.40625 11.742188 L 200.800781 11.742188 C 202.59375 21.371094 203.496094 31.164062 203.457031 40.890625 C 203.375 61.332031 199.273438 81.492188 191.285156 100.824219 C 184.375 106.148438 177.3125 111.023438 170.113281 115.039062 Z M 279.386719 358.582031 C 275.6875 359.292969 273.148438 357.8125 269.304688 355.5625 C 265.152344 353.132812 259.980469 350.105469 251.535156 348.941406 C 239.84375 347.335938 231.351562 350.800781 224.519531 353.589844 C 217.9375 356.277344 213.179688 358.21875 207.570312 355.597656 C 203.617188 353.75 202.265625 351.070312 200.390625 347.359375 C 198.3125 343.246094 195.726562 338.128906 188.78125 333.394531 C 181.191406 328.21875 174.472656 327.535156 169.074219 326.988281 C 164.578125 326.53125 162.160156 326.203125 160.574219 324.308594 C 157.980469 321.214844 156.378906 311.65625 174.167969 282.4375 C 182.980469 282.003906 192.875 282.855469 205.394531 287.230469 C 208.34375 288.257812 211.058594 289.339844 213.59375 290.460938 C 209.476562 297.816406 198.300781 317.796875 195.664062 322.503906 C 195.417969 322.953125 195.296875 323.433594 195.296875 323.914062 C 195.296875 324.925781 195.828125 325.910156 196.777344 326.441406 C 197.226562 326.691406 197.710938 326.808594 198.1875 326.808594 C 199.199219 326.808594 200.183594 326.277344 200.714844 325.328125 C 200.714844 325.328125 214.414062 300.835938 218.816406 292.96875 C 227.082031 297.226562 233.390625 301.980469 239.941406 306.921875 C 241.644531 308.207031 243.359375 309.5 245.113281 310.789062 C 244.816406 311.445312 244.472656 312.210938 244.058594 313.144531 C 242.867188 315.820312 241.296875 319.378906 239.734375 322.9375 C 236.605469 330.050781 233.503906 337.15625 233.503906 337.15625 C 232.863281 338.621094 233.53125 340.324219 234.996094 340.964844 C 235.371094 341.128906 235.765625 341.207031 236.152344 341.207031 C 237.265625 341.207031 238.328125 340.558594 238.804688 339.472656 C 242.402344 331.230469 247.492188 319.628906 249.914062 314.214844 C 259.335938 320.699219 270.714844 326.992188 288.734375 332.152344 C 291.652344 332.988281 294.601562 333.738281 297.566406 334.421875 C 292.449219 349.121094 286.339844 357.246094 279.386719 358.582031 Z M 325.210938 332.714844 C 313.34375 331.882812 301.625 329.824219 290.328125 326.589844 C 266.617188 319.804688 254.828125 310.910156 243.425781 302.304688 C 236.339844 296.960938 229.066406 291.480469 219.089844 286.652344 C 219.082031 286.644531 219.070312 286.636719 219.058594 286.628906 C 219.027344 286.613281 218.996094 286.601562 218.964844 286.585938 C 215.449219 284.890625 211.601562 283.269531 207.300781 281.769531 C 195.929688 277.792969 186.457031 276.5625 178.132812 276.5625 C 176.175781 276.5625 174.289062 276.636719 172.449219 276.75 C 172.371094 276.753906 172.292969 276.761719 172.214844 276.769531 C 167.375 277.085938 162.898438 277.730469 158.621094 278.351562 C 146.960938 280.046875 136.640625 281.546875 122.960938 276.128906 C 135.609375 273.542969 147.863281 269.71875 159.5 264.71875 C 177.902344 256.808594 194.871094 245.980469 210.316406 232.335938 C 227.039062 222.355469 242.53125 210.40625 256.363281 196.816406 C 272.910156 180.5625 287.070312 162.007812 298.453125 141.675781 C 299.234375 140.28125 298.738281 138.519531 297.34375 137.738281 C 295.949219 136.960938 294.1875 137.457031 293.40625 138.851562 C 282.292969 158.707031 268.464844 176.820312 252.3125 192.6875 C 245.640625 199.242188 238.570312 205.40625 231.160156 211.140625 C 239.945312 200.90625 248.117188 189.585938 255.636719 177.179688 C 269.761719 153.882812 281.335938 126.980469 289.117188 99.378906 C 289.550781 97.84375 288.652344 96.246094 287.117188 95.8125 C 285.578125 95.378906 283.980469 96.273438 283.550781 97.8125 C 273.203125 134.515625 240.1875 223.738281 157.214844 259.40625 C 143.59375 265.257812 129.09375 269.445312 114.09375 271.867188 C 106.675781 267.710938 101.765625 263.484375 97.019531 259.390625 C 89.898438 253.25 83.175781 247.453125 69.625 243.273438 C 54.0625 238.472656 42.410156 239.902344 33.902344 240.949219 C 27.464844 241.738281 22.8125 242.308594 18.925781 240.269531 C 7.738281 234.398438 0.09375 205.207031 27.230469 99.484375 C 33.945312 73.328125 55.503906 53.964844 82.15625 50.152344 L 114.09375 45.582031 C 122.738281 44.34375 129.253906 36.816406 129.253906 28.074219 L 129.253906 21.777344 C 129.253906 17.160156 132.386719 13.269531 136.632812 12.105469 C 138.496094 34.152344 142.714844 55.96875 149.191406 77.011719 C 153.464844 90.890625 158.785156 104.574219 164.992188 117.742188 C 158.519531 120.941406 151.945312 123.378906 145.285156 124.765625 C 140.238281 113.503906 135.839844 101.855469 132.21875 90.09375 C 128.84375 79.136719 126.066406 67.851562 123.960938 56.550781 C 123.667969 54.980469 122.15625 53.945312 120.585938 54.238281 C 119.015625 54.53125 117.980469 56.042969 118.273438 57.613281 C 120.421875 69.125 123.253906 80.625 126.691406 91.792969 C 130.230469 103.285156 134.492188 114.671875 139.371094 125.707031 C 133.1875 126.390625 126.9375 126.109375 120.625 124.625 C 93.664062 118.304688 75.46875 92.324219 64.953125 71.640625 C 64.226562 70.21875 62.484375 69.652344 61.0625 70.375 C 59.640625 71.097656 59.074219 72.839844 59.796875 74.265625 C 70.867188 96.039062 90.179688 123.425781 119.304688 130.257812 C 123.984375 131.355469 128.609375 131.867188 133.183594 131.867188 C 136.863281 131.867188 140.503906 131.519531 144.109375 130.898438 C 144.152344 130.890625 144.191406 130.886719 144.230469 130.875 C 173.402344 125.808594 200.265625 101.816406 224.585938 80.074219 C 248.371094 58.8125 270.839844 38.734375 288.761719 43.6875 C 303.789062 47.84375 314.765625 69.039062 321.394531 106.683594 C 329.902344 155 331.183594 231.046875 325.210938 332.714844 Z M 358.820312 229.1875 C 364.074219 253.273438 360.300781 258.464844 358.433594 259.578125 C 356.703125 260.613281 353.417969 260.558594 349.941406 260.5 C 345.078125 260.414062 339.328125 260.320312 334.070312 262.902344 C 335.296875 217.78125 334.671875 179.304688 332.191406 147.746094 C 345.765625 183 354.710938 210.34375 358.820312 229.1875 Z M 269.722656 77.453125 C 251.664062 113.546875 223.898438 142.269531 191.542969 158.339844 C 173.449219 167.324219 154.722656 171.886719 137.097656 171.886719 C 124.980469 171.886719 113.378906 169.730469 102.859375 165.371094 C 65.386719 149.847656 48.953125 109.636719 43.625 93.070312 C 43.136719 91.550781 43.972656 89.921875 45.492188 89.433594 C 47.011719 88.941406 48.640625 89.78125 49.128906 91.300781 C 54.210938 107.101562 69.832031 145.429688 105.074219 160.027344 C 151.628906 179.3125 225.839844 152.234375 264.550781 74.863281 C 265.261719 73.4375 267 72.859375 268.429688 73.574219 C 269.859375 74.289062 270.4375 76.023438 269.722656 77.453125 Z M 269.722656 77.453125 " fill-opacity="1" fill-rule="nonzero"/></g><g clip-path="url(#8f95bd9ab0)"><path fill="#ffffff" d="M 327.089844 107.925781 C 319.941406 67.332031 307.910156 45.230469 290.304688 40.359375 C 281.53125 37.9375 272.488281 40.046875 263.023438 45.035156 L 242.519531 42.097656 C 236.707031 41.265625 232.324219 36.203125 232.324219 30.316406 L 232.324219 24.023438 C 232.324219 15.300781 225.238281 8.203125 216.527344 8.203125 L 139.265625 8.203125 C 130.558594 8.203125 123.472656 15.300781 123.472656 24.023438 L 123.472656 30.316406 C 123.472656 36.203125 119.085938 41.265625 113.273438 42.097656 L 81.339844 46.667969 C 52.363281 50.816406 28.925781 71.863281 21.628906 100.289062 C 9.429688 147.820312 3.140625 184.296875 2.929688 208.710938 C 2.75 230.109375 7.101562 242.84375 16.238281 247.636719 C 21.726562 250.515625 27.695312 249.785156 34.609375 248.933594 C 43.042969 247.898438 53.539062 246.609375 67.921875 251.042969 C 80.316406 254.867188 86.304688 260.035156 93.242188 266.015625 C 98.160156 270.257812 103.734375 275.0625 112.179688 279.667969 C 131.773438 290.347656 145.21875 288.390625 159.453125 286.320312 C 161.957031 285.957031 164.476562 285.59375 167.054688 285.292969 C 153.398438 308.507812 149.9375 322.863281 156.140625 330.269531 C 159.3125 334.054688 163.769531 334.507812 168.488281 334.988281 C 173.484375 335.496094 179.144531 336.070312 185.523438 340.417969 C 191.238281 344.3125 193.265625 348.328125 195.226562 352.214844 C 197.257812 356.234375 199.355469 360.390625 205.125 363.082031 C 213.023438 366.773438 219.667969 364.0625 226.707031 361.191406 C 233.21875 358.535156 240.597656 355.523438 250.742188 356.917969 C 258.050781 357.925781 262.476562 360.515625 266.382812 362.800781 C 269.878906 364.84375 273.214844 366.796875 277.542969 366.796875 C 278.472656 366.796875 279.449219 366.707031 280.480469 366.507812 C 289.832031 364.710938 297.296875 355.332031 303.265625 337.882812 C 311.316406 339.457031 319.515625 340.472656 327.769531 340.914062 C 327.824219 340.917969 327.875 340.921875 327.925781 340.921875 C 329.445312 340.921875 330.71875 339.734375 330.8125 338.203125 C 332.210938 314.847656 333.226562 292.824219 333.867188 272.148438 C 338.40625 268.339844 344.214844 268.433594 349.839844 268.527344 C 354.171875 268.601562 358.257812 268.671875 361.402344 266.789062 C 370.351562 261.441406 374.882812 240.929688 330.136719 128.941406 C 329.25 121.445312 328.238281 114.433594 327.089844 107.925781 Z M 226.539062 24.023438 L 226.539062 30.316406 C 226.539062 39.0625 233.058594 46.585938 241.699219 47.824219 L 255.140625 49.75 C 244.3125 56.929688 232.910156 67.125 220.734375 78.007812 C 214.070312 83.964844 207.207031 90.097656 200.171875 95.945312 C 206.113281 78.792969 209.167969 61.082031 209.238281 43.160156 C 209.277344 33.425781 208.414062 23.632812 206.6875 13.988281 L 216.527344 13.988281 C 222.046875 13.988281 226.539062 18.488281 226.539062 24.023438 Z M 170.113281 117.285156 C 164.070312 104.4375 158.886719 91.089844 154.722656 77.554688 C 148.375 56.949219 144.242188 35.578125 142.40625 13.988281 L 200.800781 13.988281 C 202.59375 23.617188 203.496094 33.410156 203.457031 43.136719 C 203.375 63.578125 199.273438 83.734375 191.285156 103.070312 C 184.375 108.394531 177.3125 113.269531 170.113281 117.285156 Z M 279.386719 360.828125 C 275.6875 361.539062 273.148438 360.054688 269.304688 357.808594 C 265.152344 355.378906 259.980469 352.351562 251.535156 351.1875 C 239.84375 349.582031 231.351562 353.046875 224.519531 355.835938 C 217.9375 358.523438 213.179688 360.464844 207.570312 357.84375 C 203.617188 355.996094 202.265625 353.316406 200.390625 349.605469 C 198.3125 345.492188 195.726562 340.375 188.78125 335.636719 C 181.191406 330.464844 174.472656 329.78125 169.074219 329.234375 C 164.578125 328.777344 162.160156 328.449219 160.574219 326.554688 C 157.980469 323.460938 156.378906 313.902344 174.167969 284.683594 C 182.980469 284.246094 192.875 285.101562 205.394531 289.472656 C 208.34375 290.503906 211.058594 291.585938 213.59375 292.707031 C 209.476562 300.0625 198.300781 320.039062 195.664062 324.75 C 195.417969 325.195312 195.296875 325.679688 195.296875 326.160156 C 195.296875 327.171875 195.828125 328.15625 196.777344 328.6875 C 197.226562 328.9375 197.710938 329.054688 198.1875 329.054688 C 199.199219 329.054688 200.183594 328.519531 200.714844 327.574219 C 200.714844 327.574219 214.414062 303.082031 218.816406 295.214844 C 227.082031 299.472656 233.390625 304.226562 239.941406 309.167969 C 241.644531 310.453125 243.359375 311.742188 245.113281 313.035156 C 244.816406 313.691406 244.472656 314.457031 244.058594 315.390625 C 242.867188 318.066406 241.296875 321.625 239.734375 325.183594 C 236.605469 332.296875 233.503906 339.402344 233.503906 339.402344 C 232.863281 340.867188 233.53125 342.570312 234.996094 343.210938 C 235.371094 343.375 235.765625 343.453125 236.152344 343.453125 C 237.265625 343.453125 238.328125 342.804688 238.804688 341.71875 C 242.402344 333.476562 247.492188 321.871094 249.914062 316.457031 C 259.335938 322.945312 270.714844 329.238281 288.734375 334.398438 C 291.652344 335.234375 294.601562 335.984375 297.566406 336.667969 C 292.449219 351.367188 286.339844 359.492188 279.386719 360.828125 Z M 325.210938 334.960938 C 313.34375 334.128906 301.625 332.070312 290.328125 328.835938 C 266.617188 322.046875 254.828125 313.152344 243.425781 304.550781 C 236.339844 299.203125 229.066406 293.726562 219.089844 288.894531 C 219.082031 288.890625 219.070312 288.878906 219.058594 288.875 C 219.027344 288.855469 218.996094 288.847656 218.964844 288.832031 C 215.449219 287.136719 211.601562 285.515625 207.300781 284.015625 C 195.929688 280.039062 186.457031 278.808594 178.132812 278.808594 C 176.175781 278.808594 174.289062 278.878906 172.449219 278.996094 C 172.371094 278.996094 172.292969 279.007812 172.214844 279.015625 C 167.375 279.332031 162.898438 279.976562 158.621094 280.597656 C 146.960938 282.292969 136.640625 283.792969 122.960938 278.375 C 135.609375 275.789062 147.863281 271.964844 159.5 266.964844 C 177.902344 259.054688 194.871094 248.226562 210.316406 234.582031 C 227.039062 224.597656 242.53125 212.652344 256.363281 199.058594 C 272.910156 182.808594 287.070312 164.253906 298.453125 143.921875 C 299.234375 142.527344 298.738281 140.765625 297.34375 139.984375 C 295.949219 139.207031 294.1875 139.703125 293.40625 141.097656 C 282.292969 160.953125 268.464844 179.066406 252.3125 194.933594 C 245.640625 201.488281 238.570312 207.652344 231.160156 213.386719 C 239.945312 203.152344 248.117188 191.832031 255.636719 179.421875 C 269.761719 156.128906 281.335938 129.226562 289.117188 101.625 C 289.550781 100.089844 288.652344 98.492188 287.117188 98.058594 C 285.578125 97.625 283.980469 98.519531 283.550781 100.058594 C 273.203125 136.761719 240.1875 225.984375 157.214844 261.652344 C 143.59375 267.503906 129.09375 271.691406 114.09375 274.109375 C 106.675781 269.957031 101.765625 265.726562 97.019531 261.636719 C 89.898438 255.496094 83.175781 249.695312 69.625 245.519531 C 54.0625 240.71875 42.410156 242.148438 33.902344 243.195312 C 27.464844 243.984375 22.8125 244.554688 18.925781 242.515625 C 7.738281 236.644531 0.09375 207.453125 27.230469 101.730469 C 33.945312 75.574219 55.503906 56.210938 82.15625 52.394531 L 114.09375 47.824219 C 122.738281 46.585938 129.253906 39.0625 129.253906 30.316406 L 129.253906 24.023438 C 129.253906 19.40625 132.386719 15.515625 136.632812 14.351562 C 138.496094 36.394531 142.714844 58.214844 149.191406 79.257812 C 153.464844 93.132812 158.785156 106.816406 164.992188 119.988281 C 158.519531 123.1875 151.945312 125.625 145.285156 127.011719 C 140.238281 115.75 135.839844 104.097656 132.21875 92.339844 C 128.84375 81.378906 126.066406 70.097656 123.960938 58.796875 C 123.667969 57.226562 122.15625 56.191406 120.585938 56.484375 C 119.015625 56.777344 117.980469 58.289062 118.273438 59.859375 C 120.421875 71.371094 123.253906 82.871094 126.691406 94.039062 C 130.230469 105.53125 134.492188 116.917969 139.371094 127.953125 C 133.1875 128.636719 126.9375 128.355469 120.625 126.871094 C 93.664062 120.546875 75.46875 94.570312 64.953125 73.886719 C 64.226562 72.464844 62.484375 71.894531 61.0625 72.621094 C 59.640625 73.34375 59.074219 75.085938 59.796875 76.511719 C 70.867188 98.28125 90.179688 125.671875 119.304688 132.503906 C 123.984375 133.601562 128.609375 134.113281 133.183594 134.113281 C 136.863281 134.113281 140.503906 133.765625 144.109375 133.144531 C 144.152344 133.136719 144.191406 133.132812 144.230469 133.121094 C 173.402344 128.054688 200.265625 104.0625 224.585938 82.320312 C 248.371094 61.058594 270.839844 40.980469 288.761719 45.933594 C 303.789062 50.089844 314.765625 71.285156 321.394531 108.929688 C 329.902344 157.246094 331.183594 233.289062 325.210938 334.960938 Z M 358.820312 231.433594 C 364.074219 255.515625 360.300781 260.710938 358.433594 261.824219 C 356.703125 262.859375 353.417969 262.804688 349.941406 262.742188 C 345.078125 262.660156 339.328125 262.566406 334.070312 265.148438 C 335.296875 220.027344 334.671875 181.550781 332.191406 149.992188 C 345.765625 185.246094 354.710938 212.589844 358.820312 231.433594 Z M 269.722656 79.699219 C 251.664062 115.792969 223.898438 144.515625 191.542969 160.585938 C 173.449219 169.570312 154.722656 174.132812 137.097656 174.132812 C 124.980469 174.132812 113.378906 171.976562 102.859375 167.617188 C 65.386719 152.09375 48.953125 111.882812 43.625 95.316406 C 43.136719 93.796875 43.972656 92.167969 45.492188 91.679688 C 47.011719 91.1875 48.640625 92.023438 49.128906 93.546875 C 54.210938 109.347656 69.832031 147.675781 105.074219 162.273438 C 151.628906 181.554688 225.839844 154.480469 264.550781 77.109375 C 265.261719 75.683594 267 75.105469 268.429688 75.816406 C 269.859375 76.535156 270.4375 78.269531 269.722656 79.699219 Z M 269.722656 79.699219 " fill-opacity="1" fill-rule="nonzero"/></g></svg>