<svg xmlns="http://www.w3.org/2000/svg" xmlns:xlink="http://www.w3.org/1999/xlink" width="500" zoomAndPan="magnify" viewBox="0 0 375 374.999991" height="500" preserveAspectRatio="xMidYMid meet" version="1.0"><defs><clipPath id="2a4b2b477e"><path d="M 9.664062 0 L 365 0 L 365 366.75 L 9.664062 366.75 Z M 9.664062 0 " clip-rule="nonzero"/></clipPath></defs><g clip-path="url(#2a4b2b477e)"><path fill="#ffffff" d="M 362.328125 255.832031 C 357.957031 254.25 354.359375 251.507812 351.042969 248.34375 C 348.441406 245.863281 346.203125 243.0625 344.101562 240.152344 C 339.246094 233.441406 335.023438 226.332031 331.078125 219.0625 C 321.355469 201.148438 314.886719 181.988281 309.402344 162.449219 C 304.601562 145.34375 300.082031 128.148438 293.8125 111.496094 C 290.027344 101.429688 286.242188 91.3125 279.652344 82.667969 C 277.746094 80.160156 277.4375 77.867188 278.007812 75.054688 C 278.261719 73.796875 278.804688 72.726562 279.457031 71.671875 C 280.839844 69.429688 281.96875 67.050781 282.648438 64.519531 C 283.460938 61.511719 283.636719 58.464844 281.472656 55.863281 C 278.433594 52.210938 277.058594 47.984375 276.78125 43.316406 C 276.667969 41.390625 276.464844 39.46875 276.28125 37.550781 C 275.804688 32.507812 273.34375 29.046875 268.324219 27.65625 C 267.269531 27.363281 266.191406 26.871094 265.132812 26.886719 C 262.539062 26.925781 260.800781 25.605469 259.058594 23.898438 C 255.714844 20.621094 252.230469 17.480469 248.769531 14.324219 C 245.738281 11.554688 242.140625 10.589844 238.070312 10.980469 C 236.117188 11.171875 234.320312 11.796875 232.484375 12.382812 C 226.035156 14.4375 220.257812 12.523438 215.039062 8.871094 C 211.886719 6.667969 209.042969 4.015625 205.570312 2.265625 C 201.179688 0.0507812 197.078125 0.402344 193.304688 3.679688 C 191.003906 5.679688 188.898438 7.863281 187.101562 10.3125 C 186.007812 11.804688 184.851562 12.414062 182.914062 12.070312 C 178.574219 11.296875 174.179688 10.890625 169.757812 10.964844 C 168.46875 10.984375 167.332031 10.546875 166.265625 9.863281 C 159.539062 5.558594 153.210938 6.773438 147.050781 11.160156 C 142.976562 14.058594 139.484375 17.570312 136.1875 21.285156 C 135.0625 22.550781 133.910156 23.425781 132.097656 23.734375 C 125.683594 24.824219 121.121094 28.625 117.992188 34.1875 C 115.015625 39.476562 112.199219 44.84375 109.863281 50.449219 C 108.21875 54.394531 106.601562 58.367188 105.824219 62.585938 C 105.09375 66.53125 104.449219 70.648438 106.726562 74.253906 C 108.125 76.464844 107.722656 78.175781 106.917969 80.371094 C 104.765625 86.246094 103.078125 92.246094 106.257812 98.347656 C 106.789062 99.367188 106.648438 100.171875 105.824219 100.917969 C 104.902344 101.75 103.996094 102.597656 103.078125 103.433594 C 80.777344 123.699219 63.0625 147.390625 49.917969 174.511719 C 39.097656 196.847656 32 220.394531 26.832031 244.589844 C 22.089844 266.789062 25.347656 260.253906 14.011719 280.417969 C 12.046875 283.914062 10.5625 287.621094 10.0625 291.660156 C 9.671875 294.792969 10.050781 296.078125 11.601562 296.023438 C 13.992188 295.945312 13.277344 293.851562 13.523438 292.558594 C 14.710938 286.363281 17.761719 281.085938 21.070312 275.757812 C 21.789062 276.535156 21.65625 277.078125 21.574219 277.621094 C 20.96875 281.570312 20.351562 285.515625 19.769531 289.464844 C 19.605469 290.550781 19.410156 291.671875 19.914062 292.714844 C 20.070312 293.03125 20.460938 293.304688 20.808594 293.4375 C 21.253906 293.613281 21.664062 293.265625 21.800781 292.90625 C 22.144531 292.019531 22.421875 291.097656 22.632812 290.167969 C 23.957031 284.394531 25.238281 278.617188 26.5625 272.84375 C 27.519531 268.679688 28.453125 264.515625 29.527344 260.382812 C 30.105469 258.152344 31.3125 257.796875 33.113281 258.941406 C 34.46875 259.800781 33.828125 260.894531 33.539062 261.867188 C 31.84375 267.539062 30.089844 273.195312 28.347656 278.859375 C 26.722656 284.128906 25.402344 289.476562 24.613281 294.941406 C 24.457031 296.035156 24.296875 297.179688 25.539062 297.847656 C 26.886719 298.574219 27.523438 297.390625 28.347656 296.761719 C 30.027344 295.480469 30.945312 293.347656 33.042969 292.226562 C 33.546875 293.945312 32.628906 295.167969 32.472656 296.5 C 32.300781 297.964844 32.074219 299.609375 33.886719 299.78125 C 35.789062 299.964844 37.523438 303.066406 39.6875 300.152344 C 40.957031 298.445312 42.492188 296.929688 44.136719 295.074219 C 44.789062 297.585938 43.324219 299.242188 43.265625 301.128906 C 43.25 301.703125 43.324219 302.257812 43.9375 302.492188 C 44.515625 302.714844 45.011719 302.472656 45.378906 302.011719 C 47.046875 299.929688 47.964844 297.464844 48.777344 294.980469 C 51.011719 288.148438 52.296875 281.109375 53.070312 273.96875 C 53.269531 272.128906 53.082031 270.171875 54.238281 268.496094 C 58.125 270.875 58.636719 271.699219 57.675781 275.519531 C 55.832031 282.863281 54.375 290.332031 51.054688 297.226562 C 50.757812 297.84375 50.527344 298.5 50.277344 299.136719 C 49.6875 300.628906 50.464844 301.445312 51.6875 302.101562 C 52.359375 302.460938 53.425781 301.652344 53.851562 302.988281 C 52.519531 308.316406 53.023438 313.460938 56.671875 318.6875 C 57.839844 315.921875 57.738281 313.601562 57.761719 311.316406 C 57.847656 302.023438 59.15625 292.921875 61.980469 284.058594 C 62.355469 282.886719 62.777344 281.683594 63.425781 280.652344 C 64.054688 279.652344 64.9375 280.082031 65.304688 280.957031 C 65.964844 282.535156 65.640625 284.21875 65.421875 285.851562 C 64.582031 292.15625 62.691406 298.214844 61.199219 304.371094 C 59.578125 311.066406 58.027344 317.777344 57.550781 324.675781 C 57.460938 325.953125 57.507812 327.4375 59.097656 327.601562 C 61.113281 327.804688 60.460938 325.972656 60.636719 324.925781 C 61.242188 321.328125 61.085938 317.585938 62.832031 314.125 C 63.441406 315.964844 63.722656 317.839844 64.105469 319.6875 C 64.359375 320.898438 64.714844 322.089844 65.132812 323.25 C 65.242188 323.554688 65.757812 323.890625 66.09375 323.898438 C 66.710938 323.914062 67.027344 323.417969 67.035156 322.804688 C 67.042969 321.980469 67.042969 321.152344 67.003906 320.328125 C 66.832031 316.613281 66.574219 312.921875 66.753906 309.179688 C 67.070312 302.675781 68.664062 296.375 69.4375 289.953125 C 69.542969 289.089844 69.402344 288.09375 70.433594 287.316406 C 70.867188 287.996094 71.210938 288.410156 71.429688 288.886719 C 73.320312 293.078125 73.480469 297.40625 72.429688 301.828125 C 70.417969 310.28125 68.878906 318.816406 67.859375 327.445312 C 67.671875 329.015625 67.183594 330.683594 68.949219 332.359375 C 71.382812 327.195312 70.644531 321.40625 73.558594 315.804688 C 74.585938 321.949219 74.808594 327.234375 73.695312 332.492188 C 73.347656 334.125 73.433594 335.421875 74.550781 336.679688 C 74.964844 337.144531 74.863281 338.15625 75.785156 338.070312 C 76.835938 337.976562 76.90625 337.046875 77.074219 336.238281 C 77.832031 332.566406 77.816406 328.839844 77.851562 325.117188 C 77.910156 318.640625 77.929688 312.164062 78.035156 305.683594 C 78.050781 304.675781 77.835938 303.039062 79.273438 303.0625 C 80.613281 303.082031 81.121094 304.515625 81.1875 305.847656 C 81.214844 306.394531 81.21875 306.953125 81.160156 307.5 C 80.273438 315.476562 80.660156 323.472656 80.78125 331.464844 C 80.847656 335.910156 80.40625 340.265625 79.113281 344.527344 C 78.871094 345.316406 78.671875 346.132812 78.574219 346.949219 C 78.382812 348.578125 79.203125 349.625 80.75 349.917969 C 82.1875 350.191406 82.621094 349.125 82.882812 347.960938 C 83.09375 347.019531 83.371094 346.09375 83.585938 345.15625 C 85.003906 338.929688 85.003906 332.585938 85.242188 326.25 C 85.410156 321.851562 85.914062 317.460938 86.378906 313.078125 C 86.484375 312.078125 86.621094 310.632812 88.183594 310.835938 C 89.320312 310.980469 90.21875 311.75 90.304688 313.039062 C 90.390625 314.273438 90.410156 315.515625 90.410156 316.753906 C 90.410156 327.96875 88.382812 338.96875 86.875 350.019531 C 86.402344 353.453125 86.257812 356.878906 86.335938 360.328125 C 86.355469 361.277344 86.351562 362.265625 87.363281 362.863281 C 88.804688 363.710938 90.023438 362.792969 90.082031 360.65625 C 90.191406 356.660156 90.074219 352.65625 90.335938 348.671875 C 90.535156 345.628906 90.691406 342.519531 92.015625 339.628906 C 92.359375 342.925781 92.269531 346.195312 92.378906 349.460938 C 92.542969 354.429688 92.953125 359.371094 95.023438 364.003906 C 95.671875 365.460938 96.4375 366.617188 98.367188 366.46875 C 100.234375 366.324219 100.445312 364.921875 100.84375 363.636719 C 101.214844 362.4375 101.039062 360.980469 102.578125 360.042969 C 103.019531 361.175781 103.328125 362.082031 103.71875 362.949219 C 104.308594 364.257812 104.363281 366.378906 106.320312 366.144531 C 108.203125 365.921875 108.03125 363.84375 108.183594 362.441406 C 108.664062 358.046875 108.496094 353.628906 108.441406 349.21875 C 108.429688 348.128906 108.128906 346.917969 109.164062 345.472656 C 110.65625 350.507812 111.867188 355.003906 112.210938 359.695312 C 112.332031 361.34375 112.488281 362.992188 112.683594 364.636719 C 112.75 365.175781 112.980469 365.730469 113.648438 365.800781 C 114.519531 365.886719 114.90625 365.285156 114.996094 364.578125 C 115.464844 360.855469 115.363281 357.125 114.609375 353.46875 C 113.636719 348.75 112.503906 344.058594 111.339844 339.382812 C 110.027344 334.097656 109.761719 328.765625 110.425781 323.382812 C 110.515625 322.640625 110.65625 321.542969 111.828125 321.832031 C 112.648438 322.035156 112.476562 322.902344 112.398438 323.578125 C 111.632812 330.125 112.835938 336.484375 114.292969 342.808594 C 115.808594 349.386719 117.335938 355.960938 117.8125 362.722656 C 117.859375 363.394531 117.886719 364.125 118.832031 364.199219 C 120.078125 361.660156 120.21875 359.484375 119.648438 355.058594 C 118.910156 349.285156 117.050781 343.792969 115.601562 338.199219 C 115.082031 336.199219 114.375 334.207031 114.679688 331.671875 C 115.125 332.304688 115.351562 332.5 115.425781 332.746094 C 118.328125 342.207031 123.253906 351.003906 124.714844 360.945312 C 124.871094 361.996094 125.0625 363.351562 126.386719 363.539062 C 127.992188 363.765625 128.46875 362.308594 128.789062 361.175781 C 129.574219 358.378906 129.898438 355.53125 129.480469 352.589844 C 129.191406 350.574219 128.515625 348.554688 128.8125 345.644531 C 131.855469 350.816406 133.253906 355.652344 134.230469 360.664062 C 134.457031 361.824219 133.695312 363.976562 135.871094 363.742188 C 137.605469 363.554688 137.269531 361.652344 137.273438 360.335938 C 137.273438 358.964844 137.164062 357.578125 136.980469 356.21875 C 136.1875 350.429688 134.367188 344.964844 131.691406 339.777344 C 130.367188 337.207031 129.042969 334.628906 127.820312 332.011719 C 126.769531 329.765625 125.890625 327.4375 125.457031 324.976562 C 125.277344 323.945312 124.660156 322.617188 126.234375 322.242188 C 127.476562 321.941406 127.703125 323.195312 128.070312 324.054688 C 129.203125 326.714844 130.214844 329.433594 131.472656 332.03125 C 133.089844 335.378906 135.035156 338.570312 136.601562 341.941406 C 139.355469 347.867188 141.355469 353.996094 140.453125 360.703125 C 140.34375 361.523438 140.339844 362.378906 142.019531 363 C 141.730469 359.242188 146.402344 359.753906 147.09375 356.546875 C 148.027344 357.222656 147.457031 359.207031 149.480469 359.027344 C 150.042969 357.398438 149.695312 355.820312 149.308594 354.226562 C 148.253906 349.878906 146.234375 345.972656 143.753906 342.300781 C 141.207031 338.523438 138.816406 334.65625 136.761719 330.597656 C 135.707031 328.515625 134.878906 326.3125 134.0625 324.125 C 133.8125 323.449219 133.367188 322.414062 134.5 322.035156 C 135.3125 321.761719 135.714844 322.535156 135.980469 323.148438 C 139.421875 331.097656 145.09375 337.558594 150.167969 344.417969 C 152.328125 347.335938 153.929688 350.503906 154.976562 353.964844 C 155.214844 354.742188 155.214844 355.621094 156.1875 356.230469 C 157.152344 355.828125 157.691406 353.300781 159.476562 355.292969 C 160.066406 355.949219 161.054688 355.777344 161.667969 355.035156 C 162.359375 354.203125 161.734375 353.421875 161.285156 352.804688 C 159.261719 350.015625 157.195312 347.261719 155.085938 344.539062 C 150.515625 338.636719 146.25 332.550781 143.496094 325.546875 C 142.746094 323.628906 142.125 321.652344 141.554688 319.671875 C 141.300781 318.792969 140.960938 317.582031 142.269531 317.273438 C 143.363281 317.015625 143.449219 318.183594 143.710938 318.910156 C 145.675781 324.390625 148.445312 329.460938 151.648438 334.300781 C 155.753906 340.507812 160.019531 346.609375 163.699219 353.085938 C 164.273438 354.089844 164.789062 355.300781 166.378906 355.507812 C 166.898438 353.910156 166.167969 352.726562 165.679688 351.480469 C 163.601562 346.199219 160.832031 341.28125 157.863281 336.46875 C 154.679688 331.308594 151.464844 326.164062 148.960938 320.621094 C 148.394531 319.371094 147.921875 318.070312 147.476562 316.769531 C 147.234375 316.058594 147.421875 315.382812 148.179688 315.0625 C 148.898438 314.757812 149.535156 314.941406 149.917969 315.65625 C 150.175781 316.144531 150.414062 316.644531 150.589844 317.164062 C 152.800781 323.664062 156.488281 329.285156 160.914062 334.449219 C 163.921875 337.960938 166.144531 341.871094 167.410156 346.320312 C 167.660156 347.195312 167.578125 348.441406 168.832031 348.519531 C 169.996094 348.589844 169.230469 346.664062 170.488281 346.597656 C 171.578125 347.117188 171.78125 348.34375 172.507812 349.148438 C 173.007812 349.703125 173.570312 350.078125 174.300781 349.789062 C 175.398438 349.355469 175.097656 348.496094 174.785156 347.722656 C 174.371094 346.703125 173.9375 345.691406 173.441406 344.707031 C 171.070312 340.019531 168.148438 335.675781 165.082031 331.425781 C 159.863281 324.207031 156.082031 316.320312 153.648438 307.730469 C 150.058594 295.042969 148.558594 282.074219 148.140625 268.957031 C 147.617188 252.410156 148.414062 235.878906 149.039062 219.351562 C 149.554688 205.585938 149.667969 191.792969 151.421875 178.09375 C 153.128906 164.785156 156.136719 151.800781 161.265625 139.367188 C 162.640625 136.035156 162.765625 135.976562 166.152344 136.789062 C 170.582031 137.851562 175.054688 138.625 179.589844 138.976562 C 193.941406 140.085938 207.902344 138.359375 221.382812 133.148438 C 224.5625 131.921875 224.769531 132.085938 225.078125 135.578125 C 225.394531 139.148438 225.554688 142.730469 225.824219 146.304688 C 226.742188 158.390625 227.957031 170.464844 228.539062 182.570312 C 229.207031 196.480469 229.074219 210.414062 227.804688 224.300781 C 226.644531 236.953125 224.773438 249.464844 220.050781 261.382812 C 217.8125 267.03125 216.175781 272.863281 214.988281 278.820312 C 213.855469 284.515625 213.273438 290.269531 213.25 296.066406 C 213.242188 297.40625 212.960938 299.054688 214.738281 299.832031 C 215.707031 298.382812 215.382812 296.960938 215.386719 295.625 C 215.414062 281.695312 221.613281 269.5 226.199219 256.847656 C 226.441406 256.1875 226.941406 255.652344 227.765625 255.851562 C 228.628906 256.058594 228.644531 256.824219 228.625 257.496094 C 228.5625 260.023438 227.617188 262.339844 226.742188 264.652344 C 223.46875 273.324219 221.09375 282.21875 219.996094 291.4375 C 219.640625 294.457031 219.519531 297.476562 219.769531 300.511719 C 219.820312 301.113281 220.25 301.5625 220.792969 301.648438 C 221.40625 301.742188 221.824219 301.277344 221.90625 300.683594 C 222.089844 299.320312 222.285156 297.953125 222.335938 296.582031 C 222.582031 290.359375 223.601562 284.257812 225.042969 278.214844 C 225.289062 277.191406 225.335938 276.066406 226.671875 275.347656 C 226.367188 278.527344 226.066406 281.519531 225.800781 284.515625 C 225.285156 290.324219 225.644531 296.078125 226.992188 301.757812 C 227.230469 302.777344 227.332031 303.988281 228.875 303.933594 C 229.710938 302.570312 229.222656 301.179688 229.035156 299.871094 C 228.132812 293.550781 228.097656 287.234375 229.058594 280.925781 C 230.261719 273.03125 231.492188 265.140625 232.710938 257.246094 C 232.75 256.976562 232.808594 256.703125 232.890625 256.441406 C 233.109375 255.746094 233.46875 255.179688 234.316406 255.285156 C 234.945312 255.367188 235.253906 255.851562 235.328125 256.417969 C 235.433594 257.234375 235.507812 258.0625 235.496094 258.882812 C 235.449219 262.332031 235.382812 265.777344 234.867188 269.195312 C 233.714844 276.847656 233.152344 284.53125 233.597656 292.269531 C 233.804688 295.875 234.496094 299.371094 235.953125 302.6875 C 236.261719 303.394531 236.5 304.332031 238.058594 303.789062 C 236.589844 297.25 235.449219 290.589844 236.363281 283.800781 C 237.609375 289.175781 237.941406 294.691406 239.472656 299.984375 C 239.972656 301.699219 240.589844 303.382812 241.226562 305.050781 C 241.417969 305.554688 241.90625 306 242.523438 305.859375 C 243.335938 305.671875 243.539062 305.007812 243.402344 304.261719 C 243.28125 303.585938 243.125 302.910156 242.90625 302.261719 C 239.519531 292.183594 238.59375 281.796875 239.230469 271.261719 C 239.449219 267.699219 239.527344 264.066406 240.472656 260.464844 C 241.519531 260.992188 241.664062 261.660156 241.847656 262.324219 C 242.953125 266.332031 243.46875 270.40625 243.527344 274.570312 C 243.660156 283.574219 245.085938 292.394531 247.695312 301.015625 C 248.050781 302.195312 248.484375 303.367188 249.011719 304.476562 C 249.339844 305.164062 250.066406 305.371094 250.777344 305.027344 C 251.335938 304.753906 251.429688 304.171875 251.292969 303.609375 C 250.6875 301.207031 250.015625 298.820312 249.453125 296.40625 C 248.492188 292.304688 247.167969 288.265625 247.449219 283.90625 C 249.097656 287.042969 250.40625 290.308594 251.867188 293.5 C 255.273438 300.949219 255.304688 300.933594 257.390625 302.191406 C 257.769531 300.082031 256.730469 298.375 256.078125 296.628906 C 253.5625 289.921875 250.832031 283.289062 249.4375 276.222656 C 248.886719 273.441406 248.632812 270.660156 249.175781 267.957031 C 250.128906 267.90625 250.316406 268.3125 250.464844 268.671875 C 254.246094 277.835938 258.007812 287.011719 261.78125 296.179688 C 262.199219 297.195312 262.519531 298.277344 263.09375 299.199219 C 264.09375 300.800781 265.835938 300.589844 267.183594 300.117188 C 268.667969 299.601562 267.648438 298.269531 267.460938 297.269531 C 267.046875 295.109375 265.53125 293.207031 265.585938 290.703125 C 268.28125 291.660156 268.894531 295.066406 271.964844 295.007812 C 271.964844 293.582031 271.070312 293.027344 270.464844 292.324219 C 267.851562 289.28125 265.542969 286.019531 263.449219 282.613281 C 259.234375 275.753906 255.90625 268.519531 254.570312 260.503906 C 254.34375 259.152344 253.667969 257.65625 255.328125 256.144531 C 256.714844 259.46875 257.894531 262.523438 259.25 265.5 C 264.222656 276.4375 271.222656 286.257812 276.742188 296.898438 C 276.867188 297.144531 277.007812 297.382812 277.152344 297.613281 C 277.640625 298.394531 278.308594 298.816406 279.226562 298.429688 C 280.023438 298.09375 280.023438 297.335938 279.84375 296.671875 C 279.488281 295.34375 279.089844 294.023438 278.59375 292.742188 C 275.644531 285.105469 271.585938 278.078125 266.792969 271.472656 C 264.257812 267.972656 262.324219 264.199219 261.117188 260.058594 C 260.769531 258.867188 260.527344 257.648438 260.296875 256.429688 C 260.15625 255.695312 260.34375 255.054688 261.195312 254.851562 C 262.019531 254.65625 262.492188 255.128906 262.804688 255.792969 C 263.035156 256.289062 263.207031 256.816406 263.378906 257.335938 C 264.382812 260.375 265.910156 263.144531 267.707031 265.769531 C 270.746094 270.207031 273.75 274.664062 276.914062 279.007812 C 280.132812 283.433594 282.40625 288.214844 283.257812 293.648438 C 283.382812 294.457031 283.578125 295.265625 283.84375 296.039062 C 284.097656 296.78125 284.734375 297.042969 285.496094 296.941406 C 286.328125 296.835938 286.554688 296.210938 286.683594 295.496094 C 286.890625 294.328125 285.902344 293.082031 286.992188 291.863281 C 288.425781 292.15625 289.304688 293.261719 290.15625 294.292969 C 291.648438 296.097656 293 298.011719 294.4375 299.859375 C 294.941406 300.503906 295.546875 301.289062 296.46875 300.703125 C 297.300781 300.171875 297.070312 299.25 296.832031 298.449219 C 296.714844 298.054688 296.546875 297.660156 296.328125 297.316406 C 294.730469 294.800781 295.359375 292.695312 297.402344 290.757812 C 299.335938 291.441406 300.1875 293.070312 301.242188 294.496094 C 303.210938 297.152344 305.148438 299.832031 307.175781 302.441406 C 307.84375 303.296875 308.742188 303.972656 309.5625 304.707031 C 309.894531 305.003906 310.320312 305 310.671875 304.730469 C 311.039062 304.441406 311.113281 303.957031 310.898438 303.613281 C 309.824219 301.851562 308.644531 300.15625 307.597656 298.382812 C 306.636719 296.757812 305.375 295.175781 306.105469 293.097656 C 307.15625 292.640625 307.675781 293.589844 308.4375 293.78125 C 309.191406 293.972656 309.800781 293.808594 310.199219 293.128906 C 310.507812 292.597656 310.425781 292.046875 310.035156 291.59375 C 309.402344 290.867188 308.722656 290.179688 308.078125 289.464844 C 304.066406 285.015625 300.871094 280.097656 298.949219 274.363281 C 296.890625 268.214844 295.265625 261.957031 293.894531 255.625 C 293.710938 254.78125 293.386719 253.808594 294.480469 253.066406 C 294.851562 253.503906 295.269531 253.765625 295.328125 254.09375 C 297.71875 267.574219 305.554688 278.320312 312.964844 289.277344 C 313.195312 289.617188 313.445312 289.949219 313.71875 290.253906 C 314.128906 290.699219 314.671875 290.910156 315.121094 290.429688 C 315.339844 290.195312 315.433594 289.617188 315.300781 289.320312 C 314.859375 288.324219 314.308594 287.363281 313.757812 286.417969 C 311.054688 281.773438 308.207031 277.210938 305.660156 272.480469 C 302.785156 267.132812 300.355469 261.574219 299.195312 255.554688 C 299.015625 254.613281 298.878906 253.660156 298.820312 252.703125 C 298.78125 252.101562 299.183594 251.707031 299.773438 251.539062 C 300.476562 251.339844 301.207031 251.316406 301.609375 252.003906 C 301.945312 252.578125 302.113281 253.265625 302.289062 253.917969 C 304.039062 260.503906 306.871094 266.628906 310.5625 272.316406 C 313.855469 277.398438 317.703125 282.160156 318.609375 288.421875 C 318.628906 288.554688 318.695312 288.683594 318.734375 288.8125 C 318.921875 289.394531 319.324219 289.785156 319.925781 289.738281 C 320.507812 289.691406 320.878906 289.28125 321.042969 288.691406 C 321.394531 287.441406 320.714844 286.007812 321.519531 284.761719 C 323.664062 285.34375 324.699219 287.222656 326.476562 287.980469 C 327.1875 288.285156 327.828125 288.289062 328.277344 287.609375 C 328.601562 287.113281 328.550781 286.496094 328.183594 286.0625 C 327.65625 285.4375 327.003906 284.910156 326.40625 284.339844 C 324.710938 282.722656 322.945312 281.175781 321.332031 279.476562 C 314.265625 272.015625 309.867188 263.035156 306.664062 253.394531 C 306.234375 252.101562 305.5625 250.621094 307.660156 250.097656 C 309.539062 249.632812 310.5 250.558594 310.828125 252.367188 C 310.976562 253.175781 311.210938 253.976562 311.453125 254.765625 C 314.25 263.960938 318.386719 272.449219 324.714844 279.777344 C 325.890625 281.136719 327.140625 282.417969 328.746094 283.289062 C 329.519531 283.707031 330.300781 283.871094 331.019531 283.191406 C 331.714844 282.527344 331.628906 281.773438 331.339844 280.921875 C 330.875 279.550781 329.539062 278.519531 329.535156 276.578125 C 331.820312 277.5625 333.773438 278.507812 335.804688 279.242188 C 337.050781 279.691406 338.832031 280.339844 339.28125 278.492188 C 339.671875 276.898438 337.871094 276.863281 336.738281 276.507812 C 328.980469 274.082031 323.210938 269.300781 319.507812 262.03125 C 318.128906 259.328125 316.828125 256.597656 315.914062 253.695312 C 315.660156 252.890625 314.996094 252.0625 315.785156 251.089844 C 317.25 252.273438 317.8125 253.878906 318.675781 255.257812 C 324.140625 263.941406 331.78125 270.039062 341.042969 274.230469 C 342.152344 274.730469 343.644531 275.484375 344.375 274.097656 C 345.214844 272.492188 343.417969 272.199219 342.4375 271.601562 C 342.320312 271.53125 342.1875 271.492188 342.0625 271.433594 C 333.175781 267.1875 326.582031 260.535156 321.804688 252.015625 C 320.726562 250.097656 319.800781 248.089844 318.894531 246.082031 C 318.328125 244.832031 319 243.890625 320.066406 243.363281 C 321.460938 242.667969 321.679688 244.050781 322.019531 244.800781 C 324.769531 250.839844 329.15625 255.539062 334.046875 259.871094 C 338.171875 263.527344 342.183594 267.316406 346.242188 271.046875 C 346.75 271.511719 347.230469 272.011719 347.765625 272.441406 C 348.332031 272.898438 348.96875 273.164062 349.574219 272.503906 C 349.988281 272.050781 350.042969 271.457031 349.738281 270.972656 C 349.15625 270.042969 348.53125 269.128906 347.832031 268.289062 C 345.535156 265.523438 343 262.964844 340.21875 260.710938 C 333.871094 255.570312 330.074219 248.832031 327.582031 241.230469 C 327.183594 240.011719 325.957031 238.429688 327.679688 237.566406 C 329.808594 236.496094 330.078125 238.8125 330.726562 239.953125 C 335.851562 248.925781 342.851562 255.941406 352.027344 260.746094 C 352.878906 261.191406 353.726562 261.664062 354.613281 262.03125 C 355.113281 262.234375 355.796875 262.34375 356.136719 261.820312 C 356.628906 261.0625 356.019531 260.5625 355.449219 260.179688 C 354.765625 259.71875 354.027344 259.339844 353.324219 258.902344 C 345.183594 253.84375 338.828125 247.101562 334.320312 238.632812 C 333.800781 237.664062 333.351562 236.652344 332.914062 235.644531 C 332.589844 234.902344 332.804688 234.292969 333.550781 233.953125 C 334.257812 233.625 334.90625 233.75 335.34375 234.429688 C 335.863281 235.242188 336.339844 236.078125 336.835938 236.902344 C 341.519531 244.679688 347.269531 251.453125 354.992188 256.390625 C 356.855469 257.578125 358.792969 258.597656 360.953125 259.179688 C 362.300781 259.546875 363.769531 260.269531 364.511719 258.496094 C 365.339844 256.507812 363.566406 256.285156 362.316406 255.832031 Z M 306.699219 198.824219 C 307.40625 207.0625 307.941406 215.304688 308.238281 223.566406 C 308.347656 226.59375 308.644531 229.613281 308.808594 232.636719 C 308.878906 233.871094 308.5625 234.855469 306.976562 234.65625 C 299.632812 233.746094 292.769531 235.570312 286.050781 238.277344 C 285.816406 238.371094 285.511719 238.289062 285.078125 238.289062 C 283.390625 234.90625 283.546875 231.109375 283.117188 227.488281 C 281.847656 216.789062 282.078125 206.027344 282.324219 195.285156 C 282.414062 191.21875 282.546875 191.132812 286.582031 191.113281 C 292.628906 191.082031 291.488281 191.144531 291.996094 195.867188 C 292.703125 202.417969 293.027344 209.007812 294.554688 215.265625 C 294.273438 208.523438 293.9375 201.78125 293.734375 195.039062 C 293.617188 191.199219 293.714844 191.117188 297.628906 191.140625 C 307.566406 191.195312 305.976562 190.359375 306.699219 198.828125 Z M 296.007812 136.601562 C 300.164062 151.039062 302.972656 165.730469 304.789062 180.625 C 305.039062 182.671875 305.289062 184.71875 305.515625 186.765625 C 305.6875 188.328125 304.976562 189.042969 303.390625 188.996094 C 301.191406 188.933594 298.988281 188.976562 296.789062 188.910156 C 293.75 188.816406 293.527344 188.652344 293.105469 185.710938 C 292.679688 182.71875 292.40625 179.707031 292.007812 176.710938 C 291.832031 175.363281 291.523438 174.035156 291.273438 172.699219 C 290.542969 176.328125 291.203125 179.859375 291.394531 183.417969 C 291.699219 189.050781 291.679688 189.054688 285.929688 189.144531 C 285.792969 189.144531 285.652344 189.148438 285.515625 189.167969 C 283.550781 189.445312 282.734375 188.566406 282.8125 186.617188 C 282.972656 182.496094 282.953125 178.359375 283.234375 174.246094 C 284.105469 161.472656 284.230469 148.6875 283.839844 135.898438 C 283.820312 135.210938 283.824219 134.519531 283.761719 133.835938 C 283.5625 131.765625 284.777344 131.109375 286.523438 131.234375 C 288.160156 131.351562 289.796875 131.613281 291.402344 131.964844 C 293.90625 132.507812 295.265625 134.03125 296.007812 136.605469 Z M 294.058594 129.867188 C 290.441406 129.699219 287.347656 129.578125 284.253906 129.402344 C 283.199219 129.339844 283.027344 128.453125 282.863281 127.636719 C 282.347656 125.074219 281.867188 122.507812 281.328125 119.949219 C 279.710938 112.25 277.527344 104.6875 273.75 97.78125 C 271.996094 94.574219 271.820312 91.992188 273.847656 89.105469 C 274.234375 88.550781 274.421875 87.855469 275.699219 87.144531 C 283.902344 100.46875 289.175781 114.832031 294.058594 129.867188 Z M 276.699219 125.375 C 272.5625 123.242188 270.179688 120.996094 269.976562 116.628906 C 269.785156 112.550781 268.765625 108.511719 268.113281 104.457031 C 272.152344 110.765625 274.679688 117.625 276.699219 125.375 Z M 272.503906 37.457031 C 273.9375 47.5 270.769531 56.332031 265.039062 64.472656 C 269.546875 53.378906 271.425781 42.355469 264.890625 31.199219 C 269.605469 31.699219 271.957031 33.621094 272.503906 37.457031 Z M 147.808594 94.730469 C 146.4375 94.304688 145.753906 93.527344 145.886719 92.015625 C 146.554688 84.441406 147.785156 76.996094 150.777344 69.945312 C 151.996094 67.070312 152.066406 67.054688 155.03125 68.351562 C 167.148438 73.648438 179.378906 78.585938 192.363281 81.398438 C 196.9375 82.390625 201.535156 83.191406 206.195312 83.65625 C 208.695312 83.90625 208.980469 84.359375 208.679688 86.851562 C 208.566406 87.804688 208.195312 88.734375 208.132812 89.6875 C 207.699219 96.625 207.316406 95.460938 201.339844 96.703125 C 192.847656 98.46875 184.261719 99.695312 175.453125 99.742188 C 165.730469 101.257812 156.851562 97.546875 147.804688 94.730469 Z M 148.085938 98.007812 C 137.871094 96.589844 128.050781 94.074219 119.398438 88.226562 C 115.894531 85.855469 115.476562 84.933594 115.5625 81.277344 C 126.203125 87.546875 136.792969 93.453125 148.085938 98.007812 Z M 219.140625 60.09375 C 219.40625 61.289062 218.523438 61.871094 217.890625 62.554688 C 216.855469 63.660156 215.808594 64.757812 214.714844 65.808594 C 207.011719 73.210938 208.394531 73.542969 195.773438 73.003906 C 187.875 72.667969 180.394531 70.292969 173.015625 66.074219 C 176.527344 62.382812 180.867188 60.625 184.207031 57.554688 C 185.191406 56.652344 186.613281 56.894531 187.789062 57.226562 C 191.714844 58.335938 195.703125 58.097656 199.6875 57.988281 C 204.789062 57.84375 209.871094 57.828125 214.929688 58.707031 C 216.425781 58.96875 217.902344 59.167969 219.140625 60.089844 Z M 218.152344 36.804688 C 220.730469 38.933594 221.394531 41.832031 221.542969 44.9375 C 219.519531 42.585938 218.726562 39.738281 218.152344 36.804688 Z M 207.992188 79.308594 C 201.179688 78.746094 194.382812 78.066406 187.824219 75.960938 C 187.316406 75.796875 186.847656 75.515625 186.382812 74.964844 C 194.597656 76.085938 202.8125 76.628906 211.375 75.429688 C 210.839844 77.808594 210.449219 79.507812 207.992188 79.308594 Z M 210.011719 91.480469 C 210.355469 84.351562 210.359375 84.441406 217.242188 84.199219 C 226.589844 83.875 235.875 83.027344 245.238281 79.738281 C 244.863281 81.335938 243.929688 81.5 243.253906 81.871094 C 233.707031 87.125 223.65625 91.128906 213.136719 93.957031 C 209.980469 94.804688 209.859375 94.675781 210.011719 91.480469 Z M 241.542969 75.679688 C 242.8125 73.210938 253.65625 63.753906 261.773438 58.113281 C 259.09375 68.410156 251.765625 74.621094 241.542969 75.679688 Z M 235.730469 76.871094 C 234.316406 77.796875 232.835938 78.460938 231.167969 78.660156 C 225.976562 79.28125 220.785156 79.902344 215.542969 79.640625 C 214.527344 79.59375 213.109375 80.117188 212.652344 78.75 C 212.175781 77.328125 212.894531 75.964844 213.945312 75.0625 C 214.738281 74.378906 215.878906 74.058594 216.90625 73.703125 C 221.363281 72.167969 225.46875 69.964844 229.332031 67.296875 C 231.503906 65.796875 233.417969 64.011719 234.761719 61.722656 C 235.570312 60.34375 236.375 58.875 235.058594 56.605469 C 231.148438 64.867188 223.929688 67.460938 216.175781 70.578125 C 217.050781 68.449219 218.316406 67.589844 219.308594 66.542969 C 226.601562 58.859375 233.941406 51.222656 241.226562 43.535156 C 242.640625 42.042969 244.050781 40.488281 245.144531 38.761719 C 246.269531 36.988281 247.667969 36.867188 249.390625 37.339844 C 254.296875 38.6875 258.460938 41.339844 261.855469 45.050781 C 264.472656 47.910156 264.339844 50.113281 261.917969 53.132812 C 254.449219 62.433594 245.707031 70.328125 235.730469 76.871094 Z M 230.804688 16.570312 C 233.640625 16.0625 236.445312 15.371094 239.292969 14.976562 C 242.488281 14.539062 245.28125 15.730469 247.621094 17.835938 C 252.019531 21.808594 256.140625 26.050781 259.652344 30.84375 C 261.984375 34.023438 263.074219 37.648438 263.546875 41.339844 C 263.082031 41.917969 262.660156 41.96875 262.304688 41.730469 C 258.269531 39.011719 253.929688 37.003906 249.136719 36.070312 C 247.734375 35.800781 247.320312 35.097656 247.6875 33.75 C 248.378906 31.207031 248.496094 28.71875 246.488281 25.617188 C 246.832031 32.746094 243.554688 37.121094 238.28125 41.367188 C 239.578125 35.742188 241.609375 30.957031 239.761719 25.902344 C 238.976562 30.855469 237.566406 35.511719 233.972656 40.191406 C 232.707031 35.34375 231.792969 30.984375 229.617188 27.082031 C 227.417969 23.132812 224.675781 19.574219 221.25 15.640625 C 224.972656 15.722656 227.828125 17.101562 230.804688 16.570312 Z M 193.722656 8.359375 C 198.570312 4.257812 201.515625 3.824219 206.777344 7.320312 C 217.753906 14.613281 226.011719 24.105469 229.367188 37.234375 C 230.058594 39.945312 230.136719 42.671875 230.023438 45.433594 C 229.964844 46.835938 229.625 48.15625 228.808594 49.316406 C 228.492188 49.765625 228.113281 50.234375 227.507812 50.203125 C 226.878906 50.171875 226.597656 49.640625 226.441406 49.117188 C 226.242188 48.460938 226.121094 47.78125 225.996094 47.105469 C 224.640625 39.675781 221.222656 33.359375 215.621094 28.296875 C 213.535156 26.414062 211.84375 24.351562 210.757812 21.746094 C 210.234375 20.484375 209.480469 19.304688 208.738281 18.152344 C 205.382812 12.949219 202.757812 12.265625 197.074219 15.082031 C 197.066406 15.074219 197.058594 15.066406 197.050781 15.058594 C 196.78125 15.121094 196.511719 15.226562 196.246094 15.234375 C 193.84375 15.304688 190.734375 15.023438 189.960938 13.136719 C 189.117188 11.082031 192.125 9.710938 193.726562 8.355469 Z M 206.988281 20.941406 C 203.253906 18.816406 199.816406 17.648438 197.125 15.132812 C 199.289062 15.246094 201.46875 15.339844 203.433594 16.359375 C 205.011719 17.183594 206.265625 18.355469 206.988281 20.941406 Z M 173.898438 14.199219 C 179.496094 14.046875 184.871094 15.21875 190.152344 16.734375 C 196.558594 18.578125 202.519531 21.375 207.617188 25.8125 C 210.269531 28.121094 212.3125 30.804688 213.574219 34.113281 C 215.542969 39.289062 216.949219 44.605469 217.746094 50.074219 C 217.9375 51.390625 218.375 52.773438 217.570312 54.347656 C 215.867188 53.6875 215.207031 52.113281 214.519531 50.742188 C 212.792969 47.296875 211.230469 43.765625 209.621094 40.261719 C 207.828125 36.359375 205.667969 32.71875 202.257812 29.847656 C 207.058594 37.238281 208.269531 45.804688 210.929688 54.15625 C 208.8125 54.714844 207.285156 53.964844 205.726562 53.644531 C 203.609375 53.207031 202.449219 51.949219 201.996094 49.78125 C 201.199219 46.007812 200.167969 42.289062 198.792969 38.671875 C 197.074219 34.144531 194.820312 29.929688 191.503906 26.265625 C 194.808594 33.40625 197.570312 40.691406 198.644531 48.53125 C 197.167969 48.855469 196.777344 47.789062 196.234375 47.109375 C 193.632812 43.878906 191.542969 40.308594 189.546875 36.683594 C 185.40625 29.167969 180.804688 21.992188 174.410156 16.136719 C 174.019531 15.78125 173.566406 15.402344 173.898438 14.199219 Z M 174.648438 20.882812 C 177.628906 23.964844 180.121094 27.425781 182.339844 31.085938 C 183.621094 33.203125 184.808594 35.378906 186.078125 37.507812 C 187.769531 40.34375 189.457031 43.1875 191.214844 45.980469 C 192.886719 48.644531 194.980469 51 197.035156 53.488281 C 193.992188 53.210938 191.695312 51.589844 189.609375 49.683594 C 182.664062 43.347656 176.695312 36.148438 171.144531 28.585938 C 170.378906 27.542969 170.007812 25.429688 168.460938 25.898438 C 166.667969 26.4375 167.378906 28.503906 167.507812 29.914062 C 167.789062 33.011719 169.285156 35.675781 170.980469 38.203125 C 173.292969 41.652344 176.195312 44.601562 179.039062 47.597656 C 180.25 48.878906 181.457031 50.164062 182.808594 51.601562 C 178.757812 52.292969 176.105469 50.957031 171.21875 46.03125 C 171.007812 48.1875 173.386719 51.222656 178.351562 55.136719 C 172.585938 55.738281 168.472656 52.148438 161.664062 40.347656 C 161.378906 42.574219 162.28125 44.105469 162.898438 45.652344 C 164.285156 49.144531 166.484375 52.144531 168.789062 55.074219 C 170.230469 56.90625 171.605469 58.808594 170.75 61.890625 C 167.898438 59.277344 166.574219 55.429688 162.332031 54.285156 C 163.394531 56.90625 166.0625 58.308594 166.246094 61.675781 C 161.839844 59.949219 158.320312 57.84375 155.085938 55.269531 C 150.34375 51.492188 145.628906 47.675781 140.167969 44.957031 C 138.464844 44.109375 138.027344 43.082031 138.921875 41.351562 C 143.46875 32.53125 149.175781 24.71875 157.703125 19.296875 C 158.167969 19.003906 158.644531 18.730469 159.132812 18.472656 C 166.421875 14.574219 168.917969 14.957031 174.648438 20.882812 Z M 132.265625 33.277344 C 134.109375 29.222656 136.753906 25.742188 139.761719 22.492188 C 143.441406 18.511719 147.574219 15.140625 152.539062 12.90625 C 156.804688 10.992188 160.96875 11.054688 164.945312 13.703125 C 164.707031 14.46875 164.222656 14.792969 163.714844 14.953125 C 155.101562 17.648438 148.769531 23.464844 143.0625 30.105469 C 140.554688 33.023438 138.292969 36.140625 136.167969 39.359375 C 134.96875 41.167969 134.113281 41.128906 132.738281 39.457031 C 131.128906 37.503906 131.285156 35.4375 132.265625 33.277344 Z M 123.425781 32.890625 C 125.066406 30.667969 126.980469 28.746094 129.992188 27.84375 C 130.503906 29.769531 129.175781 30.847656 128.59375 32.097656 C 126.171875 37.285156 126.839844 40.054688 131.480469 43.429688 C 131.816406 43.671875 132.144531 43.929688 132.511719 44.117188 C 143.105469 49.585938 151.835938 57.675781 161.386719 64.617188 C 161.703125 64.84375 161.921875 65.203125 162.539062 65.902344 C 160.679688 65.953125 159.667969 65.167969 158.605469 64.636719 C 149.503906 60.09375 140.53125 55.300781 131.828125 50.023438 C 129 48.304688 126.261719 46.453125 124.007812 44.003906 C 120.589844 40.296875 120.410156 36.96875 123.425781 32.890625 Z M 109.472656 59.480469 C 111.039062 54.085938 113.035156 48.84375 116.371094 43.261719 C 119.125 49.203125 123.707031 52.25 128.4375 55.097656 C 134.570312 58.789062 141.027344 61.855469 147.484375 64.921875 C 150.363281 66.289062 150.394531 66.363281 149.207031 69.171875 C 146.492188 75.589844 145.234375 82.296875 145.078125 89.238281 C 145.058594 90.195312 145.003906 91.15625 144.914062 92.113281 C 144.894531 92.367188 144.691406 92.601562 144.570312 92.847656 C 143.09375 93.378906 141.878906 92.527344 140.652344 92.007812 C 131.882812 88.300781 123.574219 83.753906 115.902344 78.097656 C 108.703125 72.789062 106.992188 68.019531 109.472656 59.476562 Z M 109.851562 84.277344 C 118.929688 94.636719 131.519531 97.808594 144.074219 99.828125 C 181.355469 105.820312 216.71875 99.636719 249.765625 81.113281 C 253.863281 78.816406 257.574219 75.945312 261.132812 72.878906 C 266.816406 67.992188 270.652344 61.878906 273.214844 54.898438 C 273.589844 53.871094 274.011719 52.855469 274.46875 51.859375 C 274.5625 51.65625 274.902344 51.566406 275.195312 51.386719 C 278.324219 55.53125 278.511719 59.917969 276.351562 64.515625 C 273.269531 71.070312 269.042969 76.835938 264.007812 81.996094 C 248.851562 97.53125 230.257812 106.503906 209.070312 110.253906 C 189.867188 113.65625 170.699219 112.609375 151.605469 109.152344 C 141.984375 107.414062 132.449219 105.296875 123.171875 102.144531 C 119.902344 101.035156 116.710938 99.753906 113.714844 98.039062 C 108.289062 94.933594 106.992188 90.421875 109.851562 84.277344 Z M 140.519531 111.25 C 139.234375 113.46875 137.203125 114.023438 135.507812 114.988281 C 134.667969 115.46875 133.914062 114.976562 133.253906 114.472656 C 130.996094 112.75 128.75 111.003906 126.863281 108.878906 C 126.996094 108.582031 127.128906 108.285156 127.261719 107.984375 C 131.570312 109.046875 135.878906 110.109375 140.519531 111.25 Z M 124.980469 117.824219 C 125.054688 119.035156 124.488281 119.972656 123.769531 120.828125 C 122.882812 121.878906 121.957031 122.894531 121.035156 123.914062 C 113.132812 132.648438 106.753906 142.371094 102.070312 153.191406 C 101.742188 153.945312 101.410156 154.703125 101.027344 155.433594 C 100.417969 156.597656 99.425781 156.507812 98.621094 155.835938 C 96.871094 154.375 93.753906 155.4375 92.828125 152.855469 C 92.5625 152.125 93.597656 150.890625 94.101562 149.921875 C 99.074219 140.386719 105.105469 131.539062 111.613281 123.003906 C 114.199219 119.617188 116.796875 116.238281 119.371094 112.84375 C 120.363281 111.535156 121.335938 111.507812 122.347656 112.796875 C 123.539062 114.3125 124.714844 115.832031 124.980469 117.824219 Z M 48.039062 191.570312 C 52.472656 179.535156 57.839844 167.925781 64.171875 156.769531 C 75.410156 136.964844 89.441406 119.394531 106.363281 104.140625 C 108.871094 101.878906 108.855469 101.890625 112.027344 103.398438 C 118.949219 106.6875 117.324219 106.476562 112.9375 110.285156 C 109.292969 113.449219 105.730469 116.691406 102.609375 120.382812 C 102.117188 120.964844 101.285156 121.40625 101.472656 122.734375 C 102.648438 121.835938 103.664062 121 104.746094 120.257812 C 105.816406 119.519531 106.765625 118.464844 108.199219 118.398438 C 108.4375 119.269531 107.96875 119.644531 107.652344 120.050781 C 91.46875 140.769531 80.757812 164.148438 73.9375 189.417969 C 73.078125 192.605469 72.257812 195.804688 71.351562 198.980469 C 70.597656 201.617188 70.261719 201.816406 68.074219 200.394531 C 62.597656 196.839844 56.5625 195.285156 50.117188 194.980469 C 46.929688 194.828125 46.871094 194.742188 48.039062 191.570312 Z M 31.152344 288.683594 C 30.832031 289.121094 30.476562 289.546875 30.074219 289.910156 C 29.910156 290.058594 29.582031 290.015625 29.320312 290.058594 C 28.769531 289.273438 29.074219 288.480469 29.324219 287.707031 C 32.039062 279.347656 34.761719 270.988281 37.496094 262.632812 C 37.664062 262.113281 37.875 261.574219 38.199219 261.152344 C 38.414062 260.875 38.878906 260.648438 39.230469 260.652344 C 39.828125 260.65625 40.207031 261.078125 40.25 261.699219 C 40.273438 262.109375 40.273438 262.527344 40.226562 262.933594 C 39.136719 272.199219 36.765625 281.011719 31.15625 288.683594 Z M 48.382812 266.089844 C 48.167969 276.773438 45.785156 286.808594 39.335938 295.582031 C 38.867188 296.21875 38.5625 297.0625 37.398438 297.273438 C 37.027344 296.324219 37.335938 295.691406 37.585938 295.070312 C 41.4375 285.597656 43.882812 275.738281 45.824219 265.726562 C 46.050781 264.578125 45.585938 262.3125 47.460938 262.558594 C 49.179688 262.78125 48.40625 264.835938 48.382812 266.089844 Z M 60.601562 260.546875 C 60.183594 262.511719 59.902344 264.503906 59.40625 267.394531 C 51.496094 258.996094 43.320312 252.503906 31.488281 253.738281 C 30.867188 252.160156 31.378906 251.109375 31.582031 250.066406 C 32.683594 244.5 33.367188 244.035156 38.910156 244.386719 C 46.867188 244.886719 53.375 248.195312 58.625 254.1875 C 60.289062 256.089844 61.136719 258.023438 60.601562 260.546875 Z M 61.433594 252.535156 C 59.390625 251.65625 58.625 250.273438 57.542969 249.261719 C 51.679688 243.769531 44.808594 241.289062 36.78125 242.078125 C 33.640625 242.386719 33.347656 242.160156 34.082031 239.105469 C 37.355469 225.453125 41.074219 211.929688 45.542969 198.613281 C 46.261719 196.464844 47.46875 195.886719 49.546875 196.160156 C 56.382812 197.070312 62.5 199.695312 68.175781 203.542969 C 69.988281 204.773438 69.605469 206.214844 69.230469 207.886719 C 67.011719 217.828125 65.160156 227.84375 63.609375 237.910156 C 62.875 242.652344 62.195312 247.402344 61.433594 252.535156 Z M 73.90625 287.324219 C 70.476562 282.640625 68.042969 278.199219 64.316406 274.6875 C 62.671875 273.140625 63.671875 270.789062 64.21875 268.855469 C 64.492188 267.882812 65.503906 267.96875 66.300781 268.355469 C 67.660156 269.015625 69.132812 269.722656 69.925781 270.972656 C 72.925781 275.679688 75.796875 280.484375 73.90625 287.320312 Z M 90.304688 304.300781 C 90.28125 306.03125 89.246094 306.097656 88.164062 305.21875 C 84.757812 302.453125 81.730469 299.28125 79.164062 295.734375 C 77.894531 293.980469 78.335938 291.847656 78.933594 289.195312 C 82.3125 291.886719 85.167969 294.210938 88.660156 295.503906 C 89.660156 295.875 90.128906 296.730469 90.171875 297.75 C 90.253906 299.933594 90.335938 302.117188 90.304688 304.300781 Z M 92.171875 201.65625 C 91.640625 207.417969 91.28125 213.191406 90.792969 218.957031 C 90.703125 220.003906 90.910156 221.171875 89.800781 222.277344 C 87.34375 221.019531 85.777344 218.734375 84.03125 216.703125 C 81.328125 213.546875 78.441406 210.636719 74.726562 208.667969 C 78.214844 214.324219 82.40625 219.441406 87.480469 223.671875 C 89.796875 225.605469 90.539062 227.492188 90.382812 230.34375 C 89.371094 248.792969 89.703125 267.257812 89.945312 285.71875 C 89.972656 287.757812 90.320312 289.8125 89.761719 292.347656 C 87.296875 291.386719 85.71875 289.667969 84.148438 288.101562 C 77.351562 281.347656 78.582031 283.398438 78.65625 274.902344 C 78.734375 266.207031 79.988281 257.640625 81.929688 248.828125 C 80.488281 248.992188 80.300781 250.042969 79.984375 250.761719 C 77.53125 256.363281 76.382812 262.308594 75.554688 268.328125 C 75.335938 269.914062 75.34375 271.554688 74.222656 273.335938 C 71.917969 270.019531 69.34375 267.414062 65.808594 265.964844 C 64.078125 265.253906 64.492188 263.707031 64.628906 262.394531 C 65.175781 257.050781 65.710938 251.703125 66.417969 246.382812 C 67.945312 234.917969 69.496094 223.457031 71.949219 212.140625 C 72.300781 210.511719 72.585938 208.894531 73.601562 207.519531 C 73.132812 206.261719 73.59375 205.054688 73.890625 203.875 C 77.765625 188.484375 82.6875 173.457031 89.46875 159.074219 C 89.878906 158.203125 90.335938 157.351562 90.710938 156.464844 C 91.496094 154.609375 92.714844 154.402344 94.324219 155.417969 C 94.789062 155.710938 95.300781 155.929688 95.773438 156.210938 C 99.878906 158.679688 99.898438 158.75 98.515625 163.40625 C 94.808594 175.890625 93.359375 188.753906 92.171875 201.652344 Z M 94.050781 229.902344 C 94.757812 216.136719 95.644531 202.40625 97.644531 188.761719 C 100.601562 168.621094 106.429688 149.546875 118.429688 132.761719 C 120.90625 129.304688 123.390625 125.851562 126.542969 122.878906 C 127.640625 123.792969 126.765625 124.492188 126.480469 125.058594 C 119.917969 138.03125 116.871094 151.945312 115.203125 166.273438 C 113.117188 184.242188 112.390625 202.257812 113.003906 220.316406 C 113.285156 228.574219 113.992188 236.816406 114.503906 245.066406 C 114.546875 245.75 114.613281 246.4375 114.632812 247.128906 C 114.707031 250.171875 114.535156 250.351562 111.722656 249.480469 C 108.714844 248.546875 105.742188 247.496094 102.753906 246.496094 C 105.183594 248.914062 108.007812 250.742188 111.117188 251.707031 C 114.609375 252.785156 115.65625 254.992188 116.03125 258.308594 C 117.414062 270.65625 120.152344 282.738281 123.617188 294.660156 C 124.152344 296.511719 124.695312 298.363281 125.328125 300.183594 C 125.859375 301.707031 125.386719 302.589844 123.839844 302.871094 C 121.8125 303.246094 119.78125 303.746094 117.734375 303.875 C 111.535156 304.261719 105.347656 304.132812 99.210938 302.984375 C 95.070312 302.210938 94.800781 302.105469 94.632812 298.070312 C 93.6875 275.355469 92.882812 252.640625 94.050781 229.898438 Z M 99.585938 357.84375 C 99.503906 358.882812 99.699219 360.109375 98.285156 360.691406 C 96.765625 358.433594 96.605469 355.761719 96.339844 353.25 C 95.242188 342.867188 94.425781 332.460938 95.890625 322.035156 C 95.984375 321.355469 96.042969 320.671875 96.160156 319.996094 C 96.269531 319.382812 96.679688 319.023438 97.296875 319.078125 C 97.863281 319.132812 98.378906 319.464844 98.515625 320.015625 C 98.683594 320.667969 98.738281 321.371094 98.714844 322.050781 C 98.476562 329.066406 99.050781 336.039062 99.648438 343.019531 C 100.074219 347.953125 99.984375 352.902344 99.585938 357.839844 Z M 104.789062 349.527344 C 103.503906 343.5625 103.070312 338.015625 102.730469 332.46875 C 102.523438 329.054688 102.585938 325.625 102.578125 322.203125 C 102.578125 321.398438 102.679688 320.441406 103.804688 320.457031 C 104.796875 320.46875 105.152344 321.246094 105.253906 322.125 C 105.304688 322.53125 105.296875 322.945312 105.300781 323.355469 C 105.386719 330.882812 105.484375 338.414062 105.550781 345.941406 C 105.5625 346.980469 105.71875 348.070312 104.789062 349.527344 Z M 126.269531 353.109375 C 123.351562 344.28125 118.460938 336.066406 118.289062 326.484375 C 118.261719 325.050781 117.242188 322.578125 119.425781 322.433594 C 121.054688 322.328125 120.691406 324.878906 120.835938 326.25 C 121.277344 330.519531 122.515625 334.574219 123.777344 338.636719 C 125.234375 343.339844 126.464844 348.085938 126.269531 353.105469 Z M 128.230469 317.800781 C 126.042969 317.953125 123.835938 317.832031 121.632812 317.832031 C 113.421875 318.132812 105.582031 316.027344 97.703125 314.097656 C 95.90625 313.660156 95.3125 312.734375 95.175781 310.960938 C 94.648438 304.175781 94.601562 304.136719 101.351562 305.265625 C 108.738281 306.5 116.121094 306.582031 123.53125 305.5 C 126.695312 305.039062 126.847656 305.164062 128.113281 308.203125 C 128.957031 310.234375 129.789062 312.273438 130.5625 314.332031 C 131.65625 317.226562 131.464844 317.578125 128.230469 317.804688 Z M 129.738281 298.578125 C 125.75 289.179688 122.976562 279.398438 120.878906 269.417969 C 120.03125 265.386719 119.261719 261.328125 118.601562 257.261719 C 118.226562 254.957031 118.710938 254.464844 121.03125 254.875 C 127.53125 256.019531 134.035156 257.121094 140.648438 257.296875 C 142.800781 257.351562 142.992188 258.816406 143.101562 260.378906 C 143.417969 264.765625 143.695312 269.15625 144.003906 273.546875 C 144.476562 280.277344 145.511719 286.933594 146.675781 293.570312 C 146.816406 294.382812 146.902344 295.207031 147.011719 296.023438 C 147.238281 297.164062 146.914062 297.980469 145.628906 297.984375 C 141.558594 298 137.851562 299.578125 134.011719 300.597656 C 131.011719 301.390625 130.9375 301.414062 129.738281 298.582031 Z M 148.742188 303.214844 C 148.796875 303.484375 148.945312 303.734375 148.996094 304.003906 C 149.386719 306.148438 151.242188 308.355469 150.332031 310.285156 C 149.460938 312.132812 146.582031 311.304688 144.738281 312.179688 C 142.878906 313.066406 140.929688 313.761719 139.054688 314.617188 C 138.042969 315.082031 137.179688 315.214844 136.632812 314.070312 C 135.261719 311.21875 133.910156 308.355469 132.609375 305.46875 C 131.996094 304.109375 132.84375 303.5 133.984375 302.992188 C 136.226562 302 142.402344 300.546875 145.035156 300.53125 C 146.914062 300.28125 148.308594 301.042969 148.742188 303.21875 Z M 158.480469 138.050781 C 153.894531 148.722656 150.570312 159.773438 148.351562 171.167969 C 147.640625 174.820312 147.585938 174.800781 143.757812 174.785156 C 141.148438 174.769531 138.539062 174.78125 135.882812 175.085938 C 138.746094 175.273438 141.53125 175.964844 144.363281 176.242188 C 146.574219 176.460938 147.128906 177.515625 146.863281 179.535156 C 146.183594 184.722656 145.550781 189.917969 144.980469 195.121094 C 143.023438 212.953125 142.394531 230.839844 142.6875 248.769531 C 142.792969 255.125 142.75 255.042969 136.222656 254.597656 C 131.128906 254.253906 126.09375 253.632812 121.089844 252.628906 C 118.730469 252.15625 117.640625 251.0625 117.359375 248.546875 C 115.03125 227.851562 113.191406 207.097656 114.417969 186.277344 C 115.460938 168.59375 119.015625 151.335938 126.585938 135.113281 C 128.164062 131.730469 130.160156 128.597656 132.078125 125.410156 C 133.035156 123.816406 134.097656 123.242188 135.714844 124.523438 C 136.253906 124.949219 136.839844 125.332031 137.457031 125.628906 C 139.25 126.488281 139.230469 127.695312 138.515625 129.359375 C 135.890625 135.441406 133.808594 141.71875 132.324219 148.171875 C 130.0625 157.980469 128.628906 167.898438 128.730469 178 C 130.027344 168.296875 131.367188 158.621094 134.046875 149.191406 C 135.816406 142.960938 137.78125 136.785156 141.203125 131.210938 C 142.792969 128.617188 142.875 128.550781 145.382812 129.746094 C 149.121094 131.535156 153.019531 132.882812 156.925781 134.230469 C 159.644531 135.167969 159.683594 135.253906 158.484375 138.050781 Z M 183.914062 132.839844 C 167.886719 132.792969 153.328125 128.09375 139.949219 119.453125 C 139.027344 118.855469 138.132812 118.203125 137.289062 117.503906 C 137.003906 117.269531 136.90625 116.808594 136.675781 116.355469 C 140.539062 113.359375 144.367188 112.003906 149.570312 113.183594 C 163.804688 116.417969 178.265625 118.335938 192.925781 118.21875 C 193.597656 118.214844 194.269531 118.378906 195.332031 118.515625 C 194.855469 121.386719 192.796875 123.160156 192.304688 126.164062 C 194.558594 124.929688 195.363281 123.136719 196.238281 121.582031 C 197.789062 118.832031 199.714844 117.476562 203.082031 117.378906 C 207.453125 117.25 211.828125 116.429688 216.105469 115.355469 C 218.417969 114.769531 220.660156 114.722656 222.992188 115.476562 C 227.441406 116.910156 232.195312 116.800781 236.804688 117.753906 C 236.484375 119.390625 235.128906 119.664062 234.125 120.25 C 218.597656 129.25 201.738281 132.894531 183.914062 132.839844 Z M 240.414062 127.425781 C 240.414062 126.0625 240.105469 124.558594 241.363281 123.585938 C 242.417969 122.769531 243.519531 121.40625 244.921875 121.878906 C 246.351562 122.359375 245.773438 124.019531 245.816406 125.175781 C 246.261719 137.722656 245.5 150.234375 244.6875 162.746094 C 244.15625 170.855469 243.835938 178.980469 243.449219 187.097656 C 243.25 191.335938 243.28125 191.382812 238.914062 191.394531 C 231.753906 191.417969 232.660156 192.335938 232.371094 185.128906 C 231.804688 170.816406 231.070312 156.511719 230.421875 142.199219 C 230.285156 139.171875 230.335938 136.132812 230.09375 133.117188 C 229.882812 130.515625 230.875 128.917969 233.320312 128.121094 C 233.835938 127.953125 234.300781 127.621094 234.785156 127.363281 C 237.5625 125.898438 239.015625 126.667969 239.152344 129.679688 C 239.292969 132.839844 239.4375 136 240.414062 138.972656 C 240.414062 135.132812 240.414062 131.28125 240.414062 127.425781 Z M 244.429688 230.042969 C 244.644531 233.480469 244.578125 233.480469 241.1875 233.507812 C 238.570312 233.527344 235.957031 233.558594 233.339844 233.59375 C 230.117188 233.632812 229.804688 233.457031 230.179688 230.472656 C 231.21875 222.125 231.640625 213.738281 232.039062 205.347656 C 232.1875 202.183594 232.359375 199.015625 232.386719 195.851562 C 232.40625 193.90625 233.3125 193.261719 235.152344 193.105469 C 242.453125 192.484375 243.25 193.15625 243.234375 200.320312 C 243.226562 203.351562 243.234375 206.382812 243.234375 209.414062 C 243.210938 216.316406 244.003906 223.167969 244.433594 230.039062 Z M 226.847656 250.679688 C 227.769531 245.78125 228.566406 241.386719 229.445312 237.011719 C 229.714844 235.660156 230.980469 235.578125 232.054688 235.394531 C 235.921875 234.726562 239.734375 235.390625 243.546875 235.957031 C 244.445312 236.089844 245.070312 236.617188 245.230469 237.527344 C 246.109375 242.621094 247.113281 247.695312 247.621094 253.628906 C 240.800781 250.046875 234.210938 249.359375 226.847656 250.679688 Z M 244.714844 113.144531 C 244.085938 113.640625 243.292969 114.1875 242.542969 114.238281 C 237.378906 114.601562 232.214844 114.75 227.074219 112.773438 C 233.878906 109.839844 240.757812 107.203125 247.09375 103.425781 C 253.457031 99.632812 259.40625 95.277344 265.117188 90.535156 C 259.808594 99.511719 252.773438 106.804688 244.710938 113.144531 Z M 250.140625 225.46875 C 250.105469 223.679688 249.988281 221.890625 249.949219 220.101562 C 249.433594 195.988281 250.007812 171.898438 251.246094 147.8125 C 251.71875 138.601562 251.742188 129.359375 251.769531 120.132812 C 251.777344 117.539062 252.539062 115.757812 254.558594 114.128906 C 257.523438 111.734375 260.242188 109.03125 263.46875 106.09375 C 265.246094 109.839844 265.835938 113.238281 266.566406 116.585938 C 266.925781 118.238281 266.617188 119.253906 264.480469 118.851562 C 262.46875 118.472656 260.390625 118.363281 257.945312 119.808594 C 260.5 120.214844 262.621094 120.128906 264.648438 120.726562 C 266.640625 121.316406 267.722656 122.40625 267.914062 124.429688 C 268.078125 126.210938 268.363281 127.992188 268.367188 129.773438 C 268.40625 142.71875 268.386719 155.667969 268.554688 168.617188 C 269.617188 155.566406 270.675781 142.519531 270.71875 129.410156 C 270.726562 127.988281 269.921875 125.886719 271.441406 125.257812 C 273.140625 124.550781 274.167969 126.636719 275.40625 127.628906 C 277.339844 129.171875 278.214844 131.144531 278.449219 133.667969 C 278.808594 137.515625 279.136719 141.351562 279.125 145.207031 C 279.078125 158.707031 279.003906 172.207031 278.925781 185.707031 C 278.921875 186.519531 278.765625 187.328125 278.664062 188.300781 C 275.554688 188.449219 273.386719 185.886719 269.957031 185.703125 C 271.136719 187.566406 272.886719 188.035156 274.296875 188.6875 C 277.796875 190.304688 279.1875 192.667969 279.308594 196.695312 C 279.675781 209.078125 280.414062 221.460938 282.21875 233.742188 C 282.410156 235.058594 282.835938 236.441406 282.113281 237.777344 C 280.832031 238.078125 280.046875 237.117188 279.132812 236.613281 C 271.070312 232.167969 262.558594 229.15625 253.300781 228.75 C 250.890625 228.644531 250.1875 227.550781 250.140625 225.464844 Z M 255.261719 249.09375 C 252.6875 249.597656 252.152344 249.292969 251.867188 246.886719 C 251.339844 242.382812 251.082031 237.84375 250.679688 233.324219 C 250.492188 231.1875 251.695312 230.730469 253.476562 230.855469 C 259.578125 231.28125 265.429688 232.769531 270.976562 235.292969 C 273.972656 236.652344 276.75 238.488281 279.707031 239.949219 C 282.683594 241.421875 284.324219 243.679688 284.621094 246.980469 C 284.726562 248.1875 284.960938 249.382812 285.226562 251.222656 C 279.683594 249.835938 274.777344 248.507812 269.65625 248.414062 C 264.839844 248.324219 260.039062 248.152344 255.261719 249.09375 Z M 274.558594 270.664062 C 270.871094 266.609375 268.457031 261.929688 266.992188 256.726562 C 266.730469 255.808594 266.414062 254.75 267.773438 254.378906 C 268.785156 254.101562 269.734375 254.328125 270.273438 255.300781 C 270.601562 255.890625 270.75 256.582031 270.96875 257.234375 C 272.226562 261.019531 273.492188 264.804688 274.730469 268.597656 C 274.929688 269.203125 275.363281 269.851562 274.558594 270.664062 Z M 276.851562 255.824219 C 281.433594 267.234375 288.214844 277.589844 292.589844 289.707031 C 284.5625 285.820312 274.804688 264.738281 276.851562 255.824219 Z M 297.09375 282.476562 C 297.710938 283.652344 298.484375 284.847656 298.230469 287.132812 C 295.25 284.683594 293.351562 282.039062 291.738281 279.203125 C 288.332031 273.214844 285.929688 266.796875 283.84375 260.253906 C 283.675781 259.730469 283.546875 259.191406 283.453125 258.652344 C 283.3125 257.820312 283.210938 256.925781 284.335938 256.71875 C 285.160156 256.566406 286 256.667969 286.460938 257.546875 C 286.714844 258.03125 286.980469 258.523438 287.128906 259.046875 C 289.40625 267.300781 293.132812 274.933594 297.09375 282.472656 Z M 308.0625 246.273438 C 297.359375 247.421875 296.449219 247.710938 288.203125 252.269531 C 286.558594 249.242188 286.246094 246.082031 285.550781 243.042969 C 285.269531 241.8125 285.855469 240.945312 287.011719 240.429688 C 292.726562 237.863281 298.652344 236.238281 304.96875 236.898438 C 308.976562 237.3125 309.300781 237.785156 309.667969 241.710938 C 309.757812 242.664062 309.800781 243.625 309.835938 244.585938 C 309.875 245.804688 309.230469 246.152344 308.0625 246.277344 Z M 321.707031 234.582031 C 319.851562 236.214844 318.054688 237.917969 316.316406 239.671875 C 315.140625 240.859375 313.953125 242.136719 315.636719 243.871094 C 316.222656 244.480469 315.894531 245.183594 315.445312 245.726562 C 314.941406 246.335938 314.113281 246.601562 313.882812 245.679688 C 312.933594 241.804688 312.429688 237.859375 312.53125 233.855469 C 312.542969 233.277344 312.949219 232.8125 313.46875 232.597656 C 315.617188 231.695312 317.78125 230.835938 319.390625 230.179688 C 321.210938 229.929688 321.671875 230.757812 322.113281 231.65625 C 322.644531 232.734375 322.769531 233.65625 321.710938 234.582031 Z M 319.109375 221.535156 C 319 221.324219 318.691406 221.210938 318.476562 221.050781 C 318.078125 221.414062 318.390625 221.785156 318.449219 222.164062 C 318.691406 223.746094 320.378906 225.417969 319.21875 226.816406 C 317.828125 228.492188 315.492188 229.058594 313.421875 229.789062 C 312.289062 230.1875 311.984375 229.328125 311.90625 228.453125 C 311.660156 225.570312 311.394531 222.6875 311.253906 219.800781 C 310.582031 205.769531 310.070312 191.730469 307.941406 177.8125 C 307.863281 177.304688 307.785156 176.734375 308.355469 176.289062 C 309.480469 177.230469 309.660156 178.644531 310.09375 179.902344 C 314.964844 193.988281 320.90625 207.597656 328.03125 220.691406 C 328.421875 221.417969 328.785156 222.160156 329.144531 222.90625 C 329.6875 224.027344 329.335938 224.746094 328.136719 225.054688 C 328.003906 225.089844 327.871094 225.136719 327.734375 225.152344 C 321.75 225.894531 322.46875 228.007812 319.105469 221.535156 Z M 331.550781 230 C 329.871094 230.59375 328.210938 231.253906 326.503906 231.753906 C 325.136719 232.15625 324.476562 231.210938 324.101562 230.09375 C 323.640625 228.726562 324.675781 228.476562 325.636719 228.246094 C 326.96875 227.929688 328.304688 227.636719 329.484375 227.375 C 330.210938 227.441406 330.761719 227.449219 331.289062 227.558594 C 331.894531 227.683594 332.199219 228.214844 332.3125 228.734375 C 332.441406 229.304688 332.144531 229.785156 331.550781 230 Z M 331.550781 230 " fill-opacity="1" fill-rule="nonzero"/></g><path fill="#ffffff" d="M 338.214844 255.90625 C 343 260.832031 348.695312 264.4375 354.085938 268.441406 C 354.785156 268.964844 355.628906 269.351562 356.230469 268.488281 C 356.828125 267.636719 356.070312 266.902344 355.527344 266.335938 C 350.683594 261.316406 344.894531 257.835938 338.214844 255.90625 Z M 338.214844 255.90625 " fill-opacity="1" fill-rule="nonzero"/></svg>